<?xml version="1.0" encoding="utf-8" ?>
<svg baseProfile="tiny" height="751" version="1.2" width="756" xmlns="http://www.w3.org/2000/svg" xmlns:ev="http://www.w3.org/2001/xml-events" xmlns:xlink="http://www.w3.org/1999/xlink"><defs /><path d="M 397.0 622.5 L 396.0 622.5 L 395.0 622.5 L 394.0 622.5 L 393.0 622.5 L 392.0 622.5 L 391.0 622.5 L 390.0 622.5 L 389.0 622.5 L 388.0 622.5 L 387.0 622.5 L 386.0 622.5 L 385.0 622.5 L 384.0 622.5 L 383.0 622.5 L 382.0 622.5 L 381.0 622.5 L 380.0 622.5 L 379.0 622.5 L 378.0 622.5 L 377.0 622.5 L 376.0 622.5 L 375.0 622.5 L 374.0 622.5 L 373.0 622.5 L 372.0 622.5 L 371.0 622.5 L 370.0 622.5 L 369.5 622.0 L 369.0 621.5 L 368.0 621.5 L 367.0 621.5 L 366.0 621.5 L 365.0 621.5 L 364.0 621.5 L 363.0 621.5 L 362.0 621.5 L 361.0 621.5 L 360.0 621.5 L 359.0 621.5 L 358.0 621.5 L 357.0 621.5 L 356.0 621.5 L 355.5 621.0 L 355.0 620.5 L 354.0 620.5 L 353.0 620.5 L 352.0 620.5 L 351.0 620.5 L 350.0 620.5 L 349.0 620.5 L 348.0 620.5 L 347.5 620.0 L 347.0 619.5 L 346.0 619.5 L 345.0 619.5 L 344.0 619.5 L 343.0 619.5 L 342.0 619.5 L 341.0 619.5 L 340.5 619.0 L 340.0 618.5 L 339.0 618.5 L 338.0 618.5 L 337.0 618.5 L 336.0 618.5 L 335.0 618.5 L 334.5 618.0 L 334.0 617.5 L 333.0 617.5 L 332.0 617.5 L 331.0 617.5 L 330.0 617.5 L 329.0 617.5 L 328.5 617.0 L 328.0 616.5 L 327.0 616.5 L 326.0 616.5 L 325.0 616.5 L 324.0 616.5 L 323.5 616.0 L 323.0 615.5 L 322.0 615.5 L 321.0 615.5 L 320.0 615.5 L 319.5 615.0 L 319.0 614.5 L 318.0 614.5 L 317.0 614.5 L 316.0 614.5 L 315.5 614.0 L 315.0 613.5 L 314.0 613.5 L 313.0 613.5 L 312.0 613.5 L 311.5 613.0 L 311.0 612.5 L 310.0 612.5 L 309.0 612.5 L 308.0 612.5 L 307.5 612.0 L 307.0 611.5 L 306.0 611.5 L 305.0 611.5 L 304.5 611.0 L 304.0 610.5 L 303.0 610.5 L 302.0 610.5 L 301.5 610.0 L 301.0 609.5 L 300.0 609.5 L 299.0 609.5 L 298.0 609.5 L 297.5 609.0 L 297.0 608.5 L 296.0 608.5 L 295.0 608.5 L 294.5 608.0 L 294.0 607.5 L 293.0 607.5 L 292.0 607.5 L 291.5 607.0 L 291.0 606.5 L 290.0 606.5 L 289.5 606.0 L 289.0 605.5 L 288.0 605.5 L 287.0 605.5 L 286.5 605.0 L 286.0 604.5 L 285.0 604.5 L 284.0 604.5 L 283.5 604.0 L 283.0 603.5 L 282.0 603.5 L 281.5 603.0 L 281.0 602.5 L 280.0 602.5 L 279.0 602.5 L 278.5 602.0 L 278.0 601.5 L 277.0 601.5 L 276.5 601.0 L 276.0 600.5 L 275.0 600.5 L 274.0 600.5 L 273.5 600.0 L 273.0 599.5 L 272.0 599.5 L 271.5 599.0 L 271.0 598.5 L 270.0 598.5 L 269.5 598.0 L 269.0 597.5 L 268.0 597.5 L 267.0 597.5 L 266.5 597.0 L 266.0 596.5 L 265.0 596.5 L 264.5 596.0 L 264.0 595.5 L 263.0 595.5 L 262.5 595.0 L 262.0 594.5 L 261.0 594.5 L 260.5 594.0 L 260.0 593.5 L 259.0 593.5 L 258.5 593.0 L 258.0 592.5 L 257.0 592.5 L 256.5 592.0 L 256.0 591.5 L 255.0 591.5 L 254.5 591.0 L 254.0 590.5 L 253.0 590.5 L 252.5 590.0 L 252.0 589.5 L 251.0 589.5 L 250.5 589.0 L 250.0 588.5 L 249.5 588.0 L 249.0 587.5 L 248.0 587.5 L 247.5 587.0 L 247.0 586.5 L 246.0 586.5 L 245.5 586.0 L 245.0 585.5 L 244.0 585.5 L 243.5 585.0 L 243.0 584.5 L 242.5 584.0 L 242.0 583.5 L 241.0 583.5 L 240.5 583.0 L 240.0 582.5 L 239.0 582.5 L 238.5 582.0 L 238.0 581.5 L 237.5 581.0 L 237.0 580.5 L 236.0 580.5 L 235.5 580.0 L 235.0 579.5 L 234.0 579.5 L 233.5 579.0 L 233.0 578.5 L 232.5 578.0 L 232.0 577.5 L 231.0 577.5 L 230.5 577.0 L 230.0 576.5 L 229.5 576.0 L 229.0 575.5 L 228.0 575.5 L 227.5 575.0 L 227.0 574.5 L 226.5 574.0 L 226.0 573.5 L 225.0 573.5 L 224.5 573.0 L 224.0 572.5 L 223.5 572.0 L 223.0 571.5 L 222.5 571.0 L 222.0 570.5 L 221.0 570.5 L 220.5 570.0 L 220.0 569.5 L 219.5 569.0 L 219.0 568.5 L 218.0 568.5 L 217.5 568.0 L 217.0 567.5 L 216.5 567.0 L 216.0 566.5 L 215.5 566.0 L 215.0 565.5 L 214.0 565.5 L 213.5 565.0 L 213.0 564.5 L 212.5 564.0 L 212.0 563.5 L 211.5 563.0 L 211.0 562.5 L 210.5 562.0 L 210.0 561.5 L 209.0 561.5 L 208.5 561.0 L 208.0 560.5 L 207.5 560.0 L 207.0 559.5 L 206.5 559.0 L 206.0 558.5 L 205.5 558.0 L 205.0 557.5 L 204.0 557.5 L 203.5 557.0 L 203.0 556.5 L 202.5 556.0 L 202.0 555.5 L 201.5 555.0 L 201.0 554.5 L 200.5 554.0 L 200.0 553.5 L 199.0 553.5 L 198.5 553.0 L 198.0 552.5 L 197.5 552.0 L 197.5 551.0 L 197.0 550.5 L 196.0 550.5 L 195.5 550.0 L 195.0 549.5 L 194.5 549.0 L 194.0 548.5 L 193.5 548.0 L 193.0 547.5 L 192.5 547.0 L 192.0 546.5 L 191.5 546.0 L 191.0 545.5 L 190.5 545.0 L 190.0 544.5 L 189.5 544.0 L 189.0 543.5 L 188.5 543.0 L 188.0 542.5 L 187.5 542.0 L 187.0 541.5 L 186.5 541.0 L 186.0 540.5 L 185.5 540.0 L 185.0 539.5 L 184.5 539.0 L 184.0 538.5 L 183.5 538.0 L 183.0 537.5 L 182.5 537.0 L 182.0 536.5 L 181.5 536.0 L 181.0 535.5 L 180.5 535.0 L 180.0 534.5 L 179.5 534.0 L 179.0 533.5 L 178.5 533.0 L 178.0 532.5 L 177.5 532.0 L 177.0 531.5 L 176.5 531.0 L 176.5 530.0 L 176.0 529.5 L 175.5 529.0 L 175.0 528.5 L 174.5 528.0 L 174.0 527.5 L 173.5 527.0 L 173.0 526.5 L 172.5 526.0 L 172.0 525.5 L 171.5 525.0 L 171.0 524.5 L 170.5 524.0 L 170.0 523.5 L 169.5 523.0 L 169.5 522.0 L 169.0 521.5 L 168.5 521.0 L 168.0 520.5 L 167.5 520.0 L 167.0 519.5 L 166.5 519.0 L 166.0 518.5 L 165.5 518.0 L 165.5 517.0 L 165.0 516.5 L 164.5 516.0 L 164.0 515.5 L 163.5 515.0 L 163.0 514.5 L 162.5 514.0 L 162.0 513.5 L 161.5 513.0 L 161.5 512.0 L 161.0 511.5 L 160.5 511.0 L 160.0 510.5 L 159.5 510.0 L 159.0 509.5 L 158.5 509.0 L 158.5 508.0 L 158.0 507.5 L 157.5 507.0 L 157.0 506.5 L 156.5 506.0 L 156.5 505.0 L 156.0 504.5 L 155.5 504.0 L 155.0 503.5 L 154.5 503.0 L 154.0 502.5 L 153.5 502.0 L 153.5 501.0 L 153.0 500.5 L 152.5 500.0 L 152.0 499.5 L 151.5 499.0 L 151.5 498.0 L 151.0 497.5 L 150.5 497.0 L 150.0 496.5 L 149.5 496.0 L 149.5 495.0 L 149.0 494.5 L 148.5 494.0 L 148.0 493.5 L 147.5 493.0 L 147.5 492.0 L 147.0 491.5 L 146.5 491.0 L 146.5 490.0 L 146.0 489.5 L 145.5 489.0 L 145.0 488.5 L 144.5 488.0 L 144.5 487.0 L 144.0 486.5 L 143.5 486.0 L 143.5 485.0 L 143.0 484.5 L 142.5 484.0 L 142.0 483.5 L 141.5 483.0 L 141.5 482.0 L 141.0 481.5 L 140.5 481.0 L 140.5 480.0 L 140.0 479.5 L 139.5 479.0 L 139.5 478.0 L 139.0 477.5 L 138.5 477.0 L 138.5 476.0 L 138.0 475.5 L 137.5 475.0 L 137.0 474.5 L 136.5 474.0 L 136.5 473.0 L 136.0 472.5 L 135.5 472.0 L 135.5 471.0 L 135.0 470.5 L 134.5 470.0 L 134.5 469.0 L 134.0 468.5 L 133.5 468.0 L 133.5 467.0 L 133.0 466.5 L 132.5 466.0 L 132.5 465.0 L 132.0 464.5 L 131.5 464.0 L 131.5 463.0 L 131.0 462.5 L 130.5 462.0 L 130.5 461.0 L 130.5 460.0 L 130.0 459.5 L 129.5 459.0 L 129.5 458.0 L 129.0 457.5 L 128.5 457.0 L 128.5 456.0 L 128.0 455.5 L 127.5 455.0 L 127.5 454.0 L 127.0 453.5 L 126.5 453.0 L 126.5 452.0 L 126.5 451.0 L 126.0 450.5 L 125.5 450.0 L 125.5 449.0 L 125.0 448.5 L 124.5 448.0 L 124.5 447.0 L 124.5 446.0 L 124.0 445.5 L 123.5 445.0 L 123.5 444.0 L 123.0 443.5 L 122.5 443.0 L 122.5 442.0 L 122.5 441.0 L 122.0 440.5 L 121.5 440.0 L 121.5 439.0 L 121.5 438.0 L 121.0 437.5 L 120.5 437.0 L 120.5 436.0 L 120.5 435.0 L 120.0 434.5 L 119.5 434.0 L 119.5 433.0 L 119.5 432.0 L 119.0 431.5 L 118.5 431.0 L 118.5 430.0 L 118.5 429.0 L 118.0 428.5 L 117.5 428.0 L 117.5 427.0 L 117.5 426.0 L 117.0 425.5 L 116.5 425.0 L 116.5 424.0 L 116.5 423.0 L 116.0 422.5 L 115.5 422.0 L 115.5 421.0 L 115.5 420.0 L 115.5 419.0 L 115.0 418.5 L 114.5 418.0 L 114.5 417.0 L 114.5 416.0 L 114.0 415.5 L 113.5 415.0 L 113.5 414.0 L 113.5 413.0 L 113.5 412.0 L 113.0 411.5 L 112.5 411.0 L 112.5 410.0 L 112.5 409.0 L 112.5 408.0 L 112.5 407.0 L 112.0 406.5 L 111.5 406.0 L 111.5 405.0 L 111.5 404.0 L 111.5 403.0 L 111.0 402.5 L 110.5 402.0 L 110.5 401.0 L 110.5 400.0 L 110.5 399.0 L 110.5 398.0 L 110.0 397.5 L 109.5 397.0 L 109.5 396.0 L 109.5 395.0 L 109.5 394.0 L 109.5 393.0 L 109.0 392.5 L 108.5 392.0 L 108.5 391.0 L 108.5 390.0 L 108.5 389.0 L 108.5 388.0 L 108.5 387.0 L 108.0 386.5 L 107.5 386.0 L 107.5 385.0 L 107.5 384.0 L 107.5 383.0 L 107.5 382.0 L 107.5 381.0 L 107.5 380.0 L 107.5 379.0 L 107.0 378.5 L 106.5 378.0 L 106.5 377.0 L 106.5 376.0 L 106.5 375.0 L 106.5 374.0 L 106.5 373.0 L 106.5 372.0 L 106.5 371.0 L 106.5 370.0 L 106.0 369.5 L 105.5 369.0 L 105.5 368.0 L 105.5 367.0 L 105.5 366.0 L 105.5 365.0 L 105.5 364.0 L 105.5 363.0 L 105.5 362.0 L 105.5 361.0 L 105.5 360.0 L 105.5 359.0 L 105.5 358.0 L 105.5 357.0 L 105.5 356.0 L 105.5 355.0 L 105.5 354.0 L 105.0 353.5 L 104.5 353.0 L 104.5 352.0 L 104.5 351.0 L 104.5 350.0 L 104.5 349.0 L 104.5 348.0 L 104.5 347.0 L 104.5 346.0 L 104.5 345.0 L 104.5 344.0 L 104.5 343.0 L 104.5 342.0 L 104.5 341.0 L 104.5 340.0 L 104.5 339.0 L 104.5 338.0 L 104.5 337.0 L 104.5 336.0 L 104.5 335.0 L 104.5 334.0 L 105.0 333.5 L 105.5 333.0 L 105.5 332.0 L 105.5 331.0 L 105.5 330.0 L 105.5 329.0 L 105.5 328.0 L 105.5 327.0 L 105.5 326.0 L 105.5 325.0 L 105.5 324.0 L 105.5 323.0 L 105.5 322.0 L 105.5 321.0 L 105.5 320.0 L 105.5 319.0 L 105.5 318.0 L 106.0 317.5 L 106.5 317.0 L 106.5 316.0 L 106.5 315.0 L 106.5 314.0 L 106.5 313.0 L 106.5 312.0 L 106.5 311.0 L 106.5 310.0 L 106.5 309.0 L 107.0 308.5 L 107.5 308.0 L 107.5 307.0 L 107.5 306.0 L 107.5 305.0 L 107.5 304.0 L 107.5 303.0 L 107.5 302.0 L 108.0 301.5 L 108.5 301.0 L 108.5 300.0 L 108.5 299.0 L 108.5 298.0 L 108.5 297.0 L 108.5 296.0 L 108.5 295.0 L 109.0 294.5 L 109.5 294.0 L 109.5 293.0 L 109.5 292.0 L 109.5 291.0 L 109.5 290.0 L 110.0 289.5 L 110.5 289.0 L 110.5 288.0 L 110.5 287.0 L 110.5 286.0 L 110.5 285.0 L 111.0 284.5 L 111.5 284.0 L 111.5 283.0 L 111.5 282.0 L 111.5 281.0 L 112.0 280.5 L 112.5 280.0 L 112.5 279.0 L 112.5 278.0 L 112.5 277.0 L 112.5 276.0 L 113.0 275.5 L 113.5 275.0 L 113.5 274.0 L 113.5 273.0 L 114.0 272.5 L 114.5 272.0 L 114.5 271.0 L 114.5 270.0 L 114.5 269.0 L 115.0 268.5 L 115.5 268.0 L 115.5 267.0 L 115.5 266.0 L 115.5 265.0 L 116.0 264.5 L 116.5 264.0 L 116.5 263.0 L 116.5 262.0 L 117.0 261.5 L 117.5 261.0 L 117.5 260.0 L 117.5 259.0 L 118.0 258.5 L 118.5 258.0 L 118.5 257.0 L 118.5 256.0 L 119.0 255.5 L 119.5 255.0 L 119.5 254.0 L 119.5 253.0 L 120.0 252.5 L 120.5 252.0 L 120.5 251.0 L 120.5 250.0 L 121.0 249.5 L 121.5 249.0 L 121.5 248.0 L 121.5 247.0 L 122.0 246.5 L 122.5 246.0 L 122.5 245.0 L 122.5 244.0 L 123.0 243.5 L 123.5 243.0 L 123.5 242.0 L 124.0 241.5 L 124.5 241.0 L 124.5 240.0 L 124.5 239.0 L 125.0 238.5 L 125.5 238.0 L 125.5 237.0 L 126.0 236.5 L 126.5 236.0 L 126.5 235.0 L 127.0 234.5 L 127.5 234.0 L 127.5 233.0 L 127.5 232.0 L 128.0 231.5 L 128.5 231.0 L 128.5 230.0 L 129.0 229.5 L 129.5 229.0 L 129.5 228.0 L 130.0 227.5 L 130.5 227.0 L 130.5 226.0 L 131.0 225.5 L 131.5 225.0 L 131.5 224.0 L 131.5 223.0 L 132.0 222.5 L 132.5 222.0 L 132.5 221.0 L 133.0 220.5 L 133.5 220.0 L 133.5 219.0 L 134.0 218.5 L 134.5 218.0 L 134.5 217.0 L 135.0 216.5 L 135.5 216.0 L 135.5 215.0 L 136.0 214.5 L 136.5 214.0 L 137.0 213.5 L 137.5 213.0 L 137.5 212.0 L 138.0 211.5 L 138.5 211.0 L 138.5 210.0 L 139.0 209.5 L 139.5 209.0 L 139.5 208.0 L 140.0 207.5 L 140.5 207.0 L 140.5 206.0 L 141.0 205.5 L 141.5 205.0 L 141.5 204.0 L 142.0 203.5 L 142.5 203.0 L 143.0 202.5 L 143.5 202.0 L 143.5 201.0 L 144.0 200.5 L 144.5 200.0 L 144.5 199.0 L 145.0 198.5 L 145.5 198.0 L 146.0 197.5 L 146.5 197.0 L 146.5 196.0 L 147.0 195.5 L 147.5 195.0 L 148.0 194.5 L 148.5 194.0 L 148.5 193.0 L 149.0 192.5 L 149.5 192.0 L 149.5 191.0 L 150.0 190.5 L 150.5 190.0 L 151.0 189.5 L 151.5 189.0 L 151.5 188.0 L 152.0 187.5 L 152.5 187.0 L 153.0 186.5 L 153.5 186.0 L 154.0 185.5 L 154.5 185.0 L 154.5 184.0 L 155.0 183.5 L 155.5 183.0 L 156.0 182.5 L 156.5 182.0 L 156.5 181.0 L 157.0 180.5 L 157.5 180.0 L 158.0 179.5 L 158.5 179.0 L 158.5 178.0 L 159.0 177.5 L 159.5 177.0 L 160.0 176.5 L 160.5 176.0 L 161.0 175.5 L 161.5 175.0 L 162.0 174.5 L 162.5 174.0 L 162.5 173.0 L 163.0 172.5 L 163.5 172.0 L 164.0 171.5 L 164.5 171.0 L 165.0 170.5 L 165.5 170.0 L 165.5 169.0 L 166.0 168.5 L 166.5 168.0 L 167.0 167.5 L 167.5 167.0 L 168.0 166.5 L 168.5 166.0 L 169.0 165.5 L 169.5 165.0 L 170.0 164.5 L 170.5 164.0 L 170.5 163.0 L 171.0 162.5 L 171.5 162.0 L 172.0 161.5 L 172.5 161.0 L 173.0 160.5 L 173.5 160.0 L 174.0 159.5 L 174.5 159.0 L 175.0 158.5 L 175.5 158.0 L 176.0 157.5 L 176.5 157.0 L 177.0 156.5 L 177.5 156.0 L 177.5 155.0 L 178.0 154.5 L 178.5 154.0 L 179.0 153.5 L 179.5 153.0 L 180.0 152.5 L 180.5 152.0 L 181.0 151.5 L 181.5 151.0 L 182.0 150.5 L 182.5 150.0 L 183.0 149.5 L 183.5 149.0 L 184.0 148.5 L 184.5 148.0 L 185.0 147.5 L 185.5 147.0 L 186.0 146.5 L 186.5 146.0 L 187.0 145.5 L 187.5 145.0 L 188.0 144.5 L 188.5 144.0 L 189.0 143.5 L 189.5 143.0 L 190.0 142.5 L 190.5 142.0 L 191.0 141.5 L 191.5 141.0 L 192.0 140.5 L 192.5 140.0 L 193.0 139.5 L 193.5 139.0 L 194.0 138.5 L 194.5 138.0 L 195.0 137.5 L 196.0 137.5 L 196.5 137.0 L 197.0 136.5 L 197.5 136.0 L 198.0 135.5 L 198.5 135.0 L 199.0 134.5 L 199.5 134.0 L 200.0 133.5 L 200.5 133.0 L 201.0 132.5 L 201.5 132.0 L 202.0 131.5 L 202.5 131.0 L 203.0 130.5 L 204.0 130.5 L 204.5 130.0 L 205.0 129.5 L 205.5 129.0 L 206.0 128.5 L 206.5 128.0 L 207.0 127.5 L 207.5 127.0 L 208.0 126.5 L 208.5 126.0 L 209.0 125.5 L 210.0 125.5 L 210.5 125.0 L 211.0 124.5 L 211.5 124.0 L 212.0 123.5 L 212.5 123.0 L 213.0 122.5 L 213.5 122.0 L 214.0 121.5 L 215.0 121.5 L 215.5 121.0 L 216.0 120.5 L 216.5 120.0 L 217.0 119.5 L 217.5 119.0 L 218.0 118.5 L 219.0 118.5 L 219.5 118.0 L 220.0 117.5 L 220.5 117.0 L 221.0 116.5 L 222.0 116.5 L 222.5 116.0 L 223.0 115.5 L 223.5 115.0 L 224.0 114.5 L 224.5 114.0 L 225.0 113.5 L 226.0 113.5 L 226.5 113.0 L 227.0 112.5 L 227.5 112.0 L 228.0 111.5 L 229.0 111.5 L 229.5 111.0 L 230.0 110.5 L 230.5 110.0 L 231.0 109.5 L 232.0 109.5 L 232.5 109.0 L 233.0 108.5 L 234.0 108.5 L 234.5 108.0 L 235.0 107.5 L 235.5 107.0 L 236.0 106.5 L 237.0 106.5 L 237.5 106.0 L 238.0 105.5 L 238.5 105.0 L 239.0 104.5 L 240.0 104.5 L 240.5 104.0 L 241.0 103.5 L 242.0 103.5 L 242.5 103.0 L 243.0 102.5 L 243.5 102.0 L 244.0 101.5 L 245.0 101.5 L 245.5 101.0 L 246.0 100.5 L 247.0 100.5 L 247.5 100.0 L 248.0 99.5 L 249.0 99.5 L 249.5 99.0 L 250.0 98.5 L 251.0 98.5 L 251.5 98.0 L 252.0 97.5 L 252.5 97.0 L 253.0 96.5 L 254.0 96.5 L 254.5 96.0 L 255.0 95.5 L 256.0 95.5 L 256.5 95.0 L 257.0 94.5 L 258.0 94.5 L 258.5 94.0 L 259.0 93.5 L 260.0 93.5 L 260.5 93.0 L 261.0 92.5 L 262.0 92.5 L 262.5 92.0 L 263.0 91.5 L 264.0 91.5 L 264.5 91.0 L 265.0 90.5 L 266.0 90.5 L 267.0 90.5 L 267.5 90.0 L 268.0 89.5 L 269.0 89.5 L 269.5 89.0 L 270.0 88.5 L 271.0 88.5 L 271.5 88.0 L 272.0 87.5 L 273.0 87.5 L 273.5 87.0 L 274.0 86.5 L 275.0 86.5 L 276.0 86.5 L 276.5 86.0 L 277.0 85.5 L 278.0 85.5 L 278.5 85.0 L 279.0 84.5 L 280.0 84.5 L 281.0 84.5 L 281.5 84.0 L 282.0 83.5 L 283.0 83.5 L 283.5 83.0 L 284.0 82.5 L 285.0 82.5 L 286.0 82.5 L 286.5 82.0 L 287.0 81.5 L 288.0 81.5 L 289.0 81.5 L 289.5 81.0 L 290.0 80.5 L 291.0 80.5 L 292.0 80.5 L 292.5 80.0 L 293.0 79.5 L 294.0 79.5 L 295.0 79.5 L 295.5 79.0 L 296.0 78.5 L 297.0 78.5 L 298.0 78.5 L 298.5 78.0 L 299.0 77.5 L 300.0 77.5 L 301.0 77.5 L 301.5 77.0 L 302.0 76.5 L 303.0 76.5 L 304.0 76.5 L 304.5 76.0 L 305.0 75.5 L 306.0 75.5 L 307.0 75.5 L 308.0 75.5 L 308.5 75.0 L 309.0 74.5 L 310.0 74.5 L 311.0 74.5 L 311.5 74.0 L 312.0 73.5 L 313.0 73.5 L 314.0 73.5 L 315.0 73.5 L 315.5 73.0 L 316.0 72.5 L 317.0 72.5 L 318.0 72.5 L 319.0 72.5 L 319.5 72.0 L 320.0 71.5 L 321.0 71.5 L 322.0 71.5 L 323.0 71.5 L 324.0 71.5 L 324.5 71.0 L 325.0 70.5 L 326.0 70.5 L 327.0 70.5 L 328.0 70.5 L 328.5 71.0 L 328.0 71.5 L 327.0 71.5 L 326.5 72.0 L 326.0 72.5 L 325.0 72.5 L 324.0 72.5 L 323.5 73.0 L 323.0 73.5 L 322.0 73.5 L 321.5 74.0 L 321.0 74.5 L 320.0 74.5 L 319.0 74.5 L 318.5 75.0 L 318.0 75.5 L 317.0 75.5 L 316.0 75.5 L 315.5 76.0 L 315.0 76.5 L 314.0 76.5 L 313.5 77.0 L 313.0 77.5 L 312.0 77.5 L 311.0 77.5 L 310.5 78.0 L 310.0 78.5 L 309.0 78.5 L 308.5 79.0 L 308.0 79.5 L 307.0 79.5 L 306.5 80.0 L 306.0 80.5 L 305.0 80.5 L 304.5 81.0 L 304.0 81.5 L 303.0 81.5 L 302.0 81.5 L 301.5 82.0 L 301.0 82.5 L 300.0 82.5 L 299.5 83.0 L 299.0 83.5 L 298.0 83.5 L 297.5 84.0 L 297.0 84.5 L 296.0 84.5 L 295.5 85.0 L 295.0 85.5 L 294.0 85.5 L 293.5 86.0 L 293.0 86.5 L 292.0 86.5 L 291.5 87.0 L 291.0 87.5 L 290.0 87.5 L 289.5 88.0 L 289.0 88.5 L 288.5 89.0 L 288.0 89.5 L 287.0 89.5 L 286.5 90.0 L 286.0 90.5 L 285.0 90.5 L 284.5 91.0 L 284.0 91.5 L 283.0 91.5 L 282.5 92.0 L 282.0 92.5 L 281.0 92.5 L 280.5 93.0 L 280.0 93.5 L 279.5 94.0 L 279.0 94.5 L 278.0 94.5 L 277.5 95.0 L 277.0 95.5 L 276.0 95.5 L 275.5 96.0 L 275.0 96.5 L 274.5 97.0 L 274.0 97.5 L 273.0 97.5 L 272.5 98.0 L 272.0 98.5 L 271.5 99.0 L 271.0 99.5 L 270.0 99.5 L 269.5 100.0 L 269.0 100.5 L 268.5 101.0 L 268.0 101.5 L 267.0 101.5 L 266.5 102.0 L 266.0 102.5 L 265.5 103.0 L 265.0 103.5 L 264.0 103.5 L 263.5 104.0 L 263.0 104.5 L 262.5 105.0 L 262.0 105.5 L 261.0 105.5 L 260.5 106.0 L 260.0 106.5 L 259.5 107.0 L 259.0 107.5 L 258.5 108.0 L 258.0 108.5 L 257.0 108.5 L 256.5 109.0 L 256.0 109.5 L 255.5 110.0 L 255.0 110.5 L 254.5 111.0 L 254.0 111.5 L 253.0 111.5 L 252.5 112.0 L 252.0 112.5 L 251.5 113.0 L 251.0 113.5 L 250.5 114.0 L 250.0 114.5 L 249.5 115.0 L 249.0 115.5 L 248.0 115.5 L 247.5 116.0 L 247.0 116.5 L 246.5 117.0 L 246.0 117.5 L 245.5 118.0 L 245.0 118.5 L 244.5 119.0 L 244.0 119.5 L 243.5 120.0 L 243.0 120.5 L 242.0 120.5 L 241.5 121.0 L 241.0 121.5 L 240.5 122.0 L 240.0 122.5 L 239.5 123.0 L 239.0 123.5 L 238.5 124.0 L 238.0 124.5 L 237.5 125.0 L 237.0 125.5 L 236.5 126.0 L 236.0 126.5 L 235.5 127.0 L 235.0 127.5 L 234.5 128.0 L 234.0 128.5 L 233.5 129.0 L 233.0 129.5 L 232.5 130.0 L 232.0 130.5 L 231.5 131.0 L 231.0 131.5 L 230.5 132.0 L 230.0 132.5 L 229.5 133.0 L 229.0 133.5 L 228.5 134.0 L 228.0 134.5 L 227.5 135.0 L 227.0 135.5 L 226.5 136.0 L 226.0 136.5 L 225.5 137.0 L 225.0 137.5 L 224.5 138.0 L 224.0 138.5 L 223.5 139.0 L 223.0 139.5 L 222.5 140.0 L 222.0 140.5 L 221.5 141.0 L 221.0 141.5 L 220.5 142.0 L 220.0 142.5 L 219.5 143.0 L 219.0 143.5 L 218.5 144.0 L 218.0 144.5 L 217.5 145.0 L 217.0 145.5 L 216.5 146.0 L 216.0 146.5 L 215.5 147.0 L 215.5 148.0 L 215.0 148.5 L 214.5 149.0 L 214.0 149.5 L 213.5 150.0 L 213.0 150.5 L 212.5 151.0 L 212.0 151.5 L 211.5 152.0 L 211.0 152.5 L 210.5 153.0 L 210.5 154.0 L 210.0 154.5 L 209.5 155.0 L 209.0 155.5 L 208.5 156.0 L 208.0 156.5 L 207.5 157.0 L 207.0 157.5 L 206.5 158.0 L 206.5 159.0 L 206.0 159.5 L 205.5 160.0 L 205.0 160.5 L 204.5 161.0 L 204.0 161.5 L 203.5 162.0 L 203.5 163.0 L 203.0 163.5 L 202.5 164.0 L 202.0 164.5 L 201.5 165.0 L 201.0 165.5 L 200.5 166.0 L 200.5 167.0 L 200.0 167.5 L 199.5 168.0 L 199.0 168.5 L 198.5 169.0 L 198.5 170.0 L 198.0 170.5 L 197.5 171.0 L 197.0 171.5 L 196.5 172.0 L 196.5 173.0 L 196.0 173.5 L 195.5 174.0 L 195.0 174.5 L 194.5 175.0 L 194.5 176.0 L 194.0 176.5 L 193.5 177.0 L 193.0 177.5 L 192.5 178.0 L 192.5 179.0 L 192.0 179.5 L 191.5 180.0 L 191.0 180.5 L 190.5 181.0 L 190.5 182.0 L 190.0 182.5 L 189.5 183.0 L 189.5 184.0 L 189.0 184.5 L 188.5 185.0 L 188.0 185.5 L 187.5 186.0 L 187.5 187.0 L 187.0 187.5 L 186.5 188.0 L 186.5 189.0 L 186.0 189.5 L 185.5 190.0 L 185.5 191.0 L 185.0 191.5 L 184.5 192.0 L 184.5 193.0 L 184.0 193.5 L 183.5 194.0 L 183.0 194.5 L 182.5 195.0 L 182.5 196.0 L 182.0 196.5 L 181.5 197.0 L 181.5 198.0 L 181.0 198.5 L 180.5 199.0 L 180.5 200.0 L 180.0 200.5 L 179.5 201.0 L 179.5 202.0 L 179.0 202.5 L 178.5 203.0 L 178.5 204.0 L 178.0 204.5 L 177.5 205.0 L 177.5 206.0 L 177.0 206.5 L 176.5 207.0 L 176.5 208.0 L 176.5 209.0 L 176.0 209.5 L 175.5 210.0 L 175.5 211.0 L 175.0 211.5 L 174.5 212.0 L 174.5 213.0 L 174.0 213.5 L 173.5 214.0 L 173.5 215.0 L 173.0 215.5 L 172.5 216.0 L 172.5 217.0 L 172.5 218.0 L 172.0 218.5 L 171.5 219.0 L 171.5 220.0 L 171.0 220.5 L 170.5 221.0 L 170.5 222.0 L 170.5 223.0 L 170.0 223.5 L 169.5 224.0 L 169.5 225.0 L 169.5 226.0 L 169.0 226.5 L 168.5 227.0 L 168.5 228.0 L 168.0 228.5 L 167.5 229.0 L 167.5 230.0 L 167.5 231.0 L 167.0 231.5 L 166.5 232.0 L 166.5 233.0 L 166.5 234.0 L 166.0 234.5 L 165.5 235.0 L 165.5 236.0 L 165.5 237.0 L 165.0 237.5 L 164.5 238.0 L 164.5 239.0 L 164.5 240.0 L 164.0 240.5 L 163.5 241.0 L 163.5 242.0 L 163.5 243.0 L 163.5 244.0 L 163.0 244.5 L 162.5 245.0 L 162.5 246.0 L 162.5 247.0 L 162.0 247.5 L 161.5 248.0 L 161.5 249.0 L 161.5 250.0 L 161.5 251.0 L 161.0 251.5 L 160.5 252.0 L 160.5 253.0 L 160.5 254.0 L 160.5 255.0 L 160.0 255.5 L 159.5 256.0 L 159.5 257.0 L 159.5 258.0 L 159.5 259.0 L 159.0 259.5 L 158.5 260.0 L 158.5 261.0 L 158.5 262.0 L 158.5 263.0 L 158.5 264.0 L 158.0 264.5 L 157.5 265.0 L 157.5 266.0 L 157.5 267.0 L 157.5 268.0 L 157.5 269.0 L 157.0 269.5 L 156.5 270.0 L 156.5 271.0 L 156.5 272.0 L 156.5 273.0 L 156.5 274.0 L 156.5 275.0 L 156.0 275.5 L 155.5 276.0 L 155.5 277.0 L 155.5 278.0 L 155.5 279.0 L 155.5 280.0 L 155.5 281.0 L 155.5 282.0 L 155.0 282.5 L 154.5 283.0 L 154.5 284.0 L 154.5 285.0 L 154.5 286.0 L 154.5 287.0 L 154.5 288.0 L 154.5 289.0 L 154.5 290.0 L 154.0 290.5 L 153.5 291.0 L 153.5 292.0 L 153.5 293.0 L 153.5 294.0 L 153.5 295.0 L 153.5 296.0 L 153.5 297.0 L 153.5 298.0 L 153.5 299.0 L 153.5 300.0 L 153.5 301.0 L 153.5 302.0 L 153.5 303.0 L 153.5 304.0 L 153.0 304.5 L 152.5 305.0 L 152.5 306.0 L 152.5 307.0 L 152.5 308.0 L 152.5 309.0 L 152.5 310.0 L 152.5 311.0 L 152.5 312.0 L 152.5 313.0 L 152.5 314.0 L 152.5 315.0 L 152.5 316.0 L 152.5 317.0 L 152.5 318.0 L 152.5 319.0 L 152.5 320.0 L 152.5 321.0 L 152.5 322.0 L 152.5 323.0 L 152.5 324.0 L 152.5 325.0 L 152.5 326.0 L 152.5 327.0 L 153.0 327.5 L 153.5 328.0 L 153.5 329.0 L 153.5 330.0 L 153.5 331.0 L 153.5 332.0 L 153.5 333.0 L 153.5 334.0 L 153.5 335.0 L 153.5 336.0 L 153.5 337.0 L 153.5 338.0 L 153.5 339.0 L 153.5 340.0 L 153.5 341.0 L 154.0 341.5 L 154.5 342.0 L 154.5 343.0 L 154.5 344.0 L 154.5 345.0 L 154.5 346.0 L 154.5 347.0 L 154.5 348.0 L 154.5 349.0 L 154.5 350.0 L 155.0 350.5 L 155.5 351.0 L 155.5 352.0 L 155.5 353.0 L 155.5 354.0 L 155.5 355.0 L 155.5 356.0 L 156.0 356.5 L 156.5 357.0 L 156.5 358.0 L 156.5 359.0 L 156.5 360.0 L 156.5 361.0 L 156.5 362.0 L 157.0 362.5 L 157.5 363.0 L 157.5 364.0 L 157.5 365.0 L 157.5 366.0 L 157.5 367.0 L 158.0 367.5 L 158.5 368.0 L 158.5 369.0 L 158.5 370.0 L 158.5 371.0 L 158.5 372.0 L 159.0 372.5 L 159.5 373.0 L 159.5 374.0 L 159.5 375.0 L 159.5 376.0 L 160.0 376.5 L 160.5 377.0 L 160.5 378.0 L 160.5 379.0 L 160.5 380.0 L 161.0 380.5 L 161.5 381.0 L 161.5 382.0 L 161.5 383.0 L 161.5 384.0 L 162.0 384.5 L 162.5 385.0 L 162.5 386.0 L 162.5 387.0 L 162.5 388.0 L 163.0 388.5 L 163.5 389.0 L 163.5 390.0 L 163.5 391.0 L 164.0 391.5 L 164.5 392.0 L 164.5 393.0 L 164.5 394.0 L 165.0 394.5 L 165.5 395.0 L 165.5 396.0 L 165.5 397.0 L 166.0 397.5 L 166.5 398.0 L 166.5 399.0 L 166.5 400.0 L 167.0 400.5 L 167.5 401.0 L 167.5 402.0 L 167.5 403.0 L 168.0 403.5 L 168.5 404.0 L 168.5 405.0 L 168.5 406.0 L 169.0 406.5 L 169.5 407.0 L 169.5 408.0 L 170.0 408.5 L 170.5 409.0 L 170.5 410.0 L 170.5 411.0 L 171.0 411.5 L 171.5 412.0 L 171.5 413.0 L 172.0 413.5 L 172.5 414.0 L 172.5 415.0 L 172.5 416.0 L 173.0 416.5 L 173.5 417.0 L 173.5 418.0 L 174.0 418.5 L 174.5 419.0 L 174.5 420.0 L 175.0 420.5 L 175.5 421.0 L 175.5 422.0 L 175.5 423.0 L 176.0 423.5 L 176.5 424.0 L 176.5 425.0 L 177.0 425.5 L 177.5 426.0 L 177.5 427.0 L 178.0 427.5 L 178.5 428.0 L 178.5 429.0 L 179.0 429.5 L 179.5 430.0 L 179.5 431.0 L 180.0 431.5 L 180.5 432.0 L 180.5 433.0 L 181.0 433.5 L 181.5 434.0 L 181.5 435.0 L 182.0 435.5 L 182.5 436.0 L 182.5 437.0 L 183.0 437.5 L 183.5 438.0 L 183.5 439.0 L 184.0 439.5 L 184.5 440.0 L 185.0 440.5 L 185.5 441.0 L 185.5 442.0 L 186.0 442.5 L 186.5 443.0 L 186.5 444.0 L 187.0 444.5 L 187.5 445.0 L 187.5 446.0 L 188.0 446.5 L 188.5 447.0 L 189.0 447.5 L 189.5 448.0 L 189.5 449.0 L 190.0 449.5 L 190.5 450.0 L 190.5 451.0 L 191.0 451.5 L 191.5 452.0 L 192.0 452.5 L 192.5 453.0 L 192.5 454.0 L 193.0 454.5 L 193.5 455.0 L 194.0 455.5 L 194.5 456.0 L 194.5 457.0 L 195.0 457.5 L 195.5 458.0 L 196.0 458.5 L 196.5 459.0 L 196.5 460.0 L 197.0 460.5 L 197.5 461.0 L 198.0 461.5 L 198.5 462.0 L 198.5 463.0 L 199.0 463.5 L 199.5 464.0 L 200.0 464.5 L 200.5 465.0 L 200.5 466.0 L 201.0 466.5 L 201.5 467.0 L 202.0 467.5 L 202.5 468.0 L 203.0 468.5 L 203.5 469.0 L 203.5 470.0 L 204.0 470.5 L 204.5 471.0 L 205.0 471.5 L 205.5 472.0 L 206.0 472.5 L 206.5 473.0 L 206.5 474.0 L 207.0 474.5 L 207.5 475.0 L 208.0 475.5 L 208.5 476.0 L 209.0 476.5 L 209.5 477.0 L 209.5 478.0 L 210.0 478.5 L 210.5 479.0 L 211.0 479.5 L 211.5 480.0 L 212.0 480.5 L 212.5 481.0 L 213.0 481.5 L 213.5 482.0 L 214.0 482.5 L 214.5 483.0 L 214.5 484.0 L 215.0 484.5 L 215.5 485.0 L 216.0 485.5 L 216.5 486.0 L 217.0 486.5 L 217.5 487.0 L 218.0 487.5 L 218.5 488.0 L 219.0 488.5 L 219.5 489.0 L 220.0 489.5 L 220.5 489.0 L 221.0 488.5 L 221.5 488.0 L 221.5 487.0 L 222.0 486.5 L 222.5 486.0 L 222.5 485.0 L 223.0 484.5 L 223.5 484.0 L 223.5 483.0 L 223.5 482.0 L 223.5 481.0 L 223.5 480.0 L 223.5 479.0 L 224.0 478.5 L 224.5 478.0 L 224.5 477.0 L 224.5 476.0 L 224.5 475.0 L 225.0 474.5 L 226.0 474.5 L 227.0 474.5 L 228.0 474.5 L 229.0 474.5 L 230.0 474.5 L 231.0 474.5 L 231.5 475.0 L 231.5 476.0 L 232.0 476.5 L 232.5 476.0 L 233.0 475.5 L 233.5 475.0 L 234.0 474.5 L 234.5 474.0 L 235.0 473.5 L 235.5 473.0 L 236.0 472.5 L 236.5 472.0 L 237.0 471.5 L 237.5 471.0 L 238.0 470.5 L 239.0 470.5 L 239.5 470.0 L 240.0 469.5 L 241.0 469.5 L 242.0 469.5 L 243.0 469.5 L 244.0 469.5 L 244.5 470.0 L 245.0 470.5 L 246.0 470.5 L 246.5 471.0 L 247.0 471.5 L 247.5 472.0 L 248.0 472.5 L 248.5 473.0 L 249.0 473.5 L 249.5 473.0 L 250.0 472.5 L 251.0 472.5 L 252.0 472.5 L 253.0 472.5 L 253.5 472.0 L 254.0 471.5 L 255.0 471.5 L 256.0 471.5 L 257.0 471.5 L 258.0 471.5 L 259.0 471.5 L 260.0 471.5 L 261.0 471.5 L 262.0 471.5 L 262.5 472.0 L 263.0 472.5 L 264.0 472.5 L 265.0 472.5 L 266.0 472.5 L 266.5 473.0 L 267.0 473.5 L 268.0 473.5 L 268.5 473.0 L 269.0 472.5 L 270.0 472.5 L 271.0 472.5 L 271.5 472.0 L 272.0 471.5 L 273.0 471.5 L 274.0 471.5 L 274.5 471.0 L 275.0 470.5 L 276.0 470.5 L 277.0 470.5 L 278.0 470.5 L 279.0 470.5 L 280.0 470.5 L 281.0 470.5 L 282.0 470.5 L 282.5 471.0 L 283.0 471.5 L 284.0 471.5 L 285.0 471.5 L 286.0 471.5 L 286.5 472.0 L 287.0 472.5 L 288.0 472.5 L 289.0 472.5 L 289.5 473.0 L 290.0 473.5 L 291.0 473.5 L 291.5 473.0 L 292.0 472.5 L 293.0 472.5 L 294.0 472.5 L 295.0 472.5 L 296.0 472.5 L 297.0 472.5 L 298.0 472.5 L 299.0 472.5 L 300.0 472.5 L 301.0 472.5 L 302.0 472.5 L 302.5 473.0 L 303.0 473.5 L 303.5 473.0 L 304.0 472.5 L 304.5 472.0 L 305.0 471.5 L 305.5 471.0 L 306.0 470.5 L 306.5 470.0 L 307.0 469.5 L 308.0 469.5 L 309.0 469.5 L 309.5 470.0 L 310.0 470.5 L 310.5 471.0 L 311.0 471.5 L 311.5 472.0 L 312.0 472.5 L 312.5 473.0 L 313.0 473.5 L 313.5 474.0 L 313.0 474.5 L 312.5 475.0 L 312.0 475.5 L 311.5 476.0 L 311.0 476.5 L 310.5 477.0 L 310.0 477.5 L 309.5 478.0 L 309.0 478.5 L 308.5 479.0 L 308.0 479.5 L 307.5 480.0 L 307.0 480.5 L 306.5 481.0 L 306.0 481.5 L 305.5 482.0 L 305.0 482.5 L 304.0 482.5 L 303.5 482.0 L 303.0 481.5 L 302.5 482.0 L 302.5 483.0 L 302.5 484.0 L 302.5 485.0 L 302.5 486.0 L 302.5 487.0 L 302.5 488.0 L 302.5 489.0 L 302.5 490.0 L 302.5 491.0 L 302.5 492.0 L 302.5 493.0 L 302.5 494.0 L 302.5 495.0 L 302.0 495.5 L 301.0 495.5 L 300.0 495.5 L 299.0 495.5 L 298.0 495.5 L 297.0 495.5 L 296.0 495.5 L 295.0 495.5 L 294.5 496.0 L 294.0 496.5 L 293.0 496.5 L 292.0 496.5 L 291.0 496.5 L 290.0 496.5 L 289.0 496.5 L 288.0 496.5 L 287.0 496.5 L 286.5 497.0 L 286.0 497.5 L 285.5 498.0 L 285.0 498.5 L 284.5 499.0 L 284.0 499.5 L 283.5 500.0 L 283.0 500.5 L 282.5 501.0 L 282.0 501.5 L 281.5 502.0 L 281.5 503.0 L 281.0 503.5 L 280.5 504.0 L 280.5 505.0 L 280.5 506.0 L 280.0 506.5 L 279.5 507.0 L 279.5 508.0 L 279.5 509.0 L 279.5 510.0 L 279.5 511.0 L 279.5 512.0 L 279.5 513.0 L 279.5 514.0 L 279.5 515.0 L 279.5 516.0 L 279.5 517.0 L 279.5 518.0 L 279.5 519.0 L 279.5 520.0 L 280.0 520.5 L 280.5 521.0 L 280.5 522.0 L 280.5 523.0 L 280.5 524.0 L 280.5 525.0 L 280.5 526.0 L 280.5 527.0 L 280.5 528.0 L 280.5 529.0 L 280.5 530.0 L 281.0 530.5 L 281.5 531.0 L 281.5 532.0 L 281.5 533.0 L 281.5 534.0 L 281.5 535.0 L 281.5 536.0 L 281.5 537.0 L 281.5 538.0 L 281.5 539.0 L 282.0 539.5 L 282.5 540.0 L 283.0 540.5 L 284.0 540.5 L 284.5 541.0 L 285.0 541.5 L 285.5 542.0 L 286.0 542.5 L 287.0 542.5 L 287.5 543.0 L 288.0 543.5 L 289.0 543.5 L 289.5 544.0 L 290.0 544.5 L 291.0 544.5 L 291.5 545.0 L 292.0 545.5 L 293.0 545.5 L 293.5 546.0 L 294.0 546.5 L 295.0 546.5 L 295.5 547.0 L 296.0 547.5 L 297.0 547.5 L 297.5 548.0 L 298.0 548.5 L 299.0 548.5 L 299.5 549.0 L 300.0 549.5 L 301.0 549.5 L 301.5 550.0 L 302.0 550.5 L 303.0 550.5 L 303.5 551.0 L 304.0 551.5 L 305.0 551.5 L 305.5 552.0 L 306.0 552.5 L 307.0 552.5 L 308.0 552.5 L 308.5 553.0 L 309.0 553.5 L 310.0 553.5 L 310.5 554.0 L 311.0 554.5 L 312.0 554.5 L 312.5 555.0 L 313.0 555.5 L 314.0 555.5 L 315.0 555.5 L 315.5 556.0 L 316.0 556.5 L 317.0 556.5 L 317.5 557.0 L 318.0 557.5 L 319.0 557.5 L 320.0 557.5 L 320.5 558.0 L 321.0 558.5 L 322.0 558.5 L 323.0 558.5 L 323.5 559.0 L 324.0 559.5 L 325.0 559.5 L 326.0 559.5 L 326.5 560.0 L 327.0 560.5 L 328.0 560.5 L 329.0 560.5 L 329.5 561.0 L 330.0 561.5 L 331.0 561.5 L 332.0 561.5 L 332.5 562.0 L 333.0 562.5 L 334.0 562.5 L 335.0 562.5 L 335.5 563.0 L 336.0 563.5 L 337.0 563.5 L 338.0 563.5 L 338.5 564.0 L 339.0 564.5 L 340.0 564.5 L 341.0 564.5 L 342.0 564.5 L 342.5 565.0 L 343.0 565.5 L 344.0 565.5 L 345.0 565.5 L 345.5 566.0 L 346.0 566.5 L 347.0 566.5 L 348.0 566.5 L 349.0 566.5 L 349.5 567.0 L 350.0 567.5 L 351.0 567.5 L 352.0 567.5 L 353.0 567.5 L 353.5 568.0 L 354.0 568.5 L 355.0 568.5 L 356.0 568.5 L 357.0 568.5 L 358.0 568.5 L 358.5 569.0 L 359.0 569.5 L 360.0 569.5 L 361.0 569.5 L 362.0 569.5 L 363.0 569.5 L 363.5 570.0 L 364.0 570.5 L 365.0 570.5 L 366.0 570.5 L 367.0 570.5 L 368.0 570.5 L 369.0 570.5 L 369.5 571.0 L 370.0 571.5 L 371.0 571.5 L 372.0 571.5 L 373.0 571.5 L 374.0 571.5 L 375.0 571.5 L 375.5 572.0 L 376.0 572.5 L 377.0 572.5 L 378.0 572.5 L 379.0 572.5 L 380.0 572.5 L 381.0 572.5 L 382.0 572.5 L 383.0 572.5 L 384.0 572.5 L 384.5 573.0 L 385.0 573.5 L 386.0 573.5 L 387.0 573.5 L 388.0 573.5 L 389.0 573.5 L 390.0 573.5 L 391.0 573.5 L 392.0 573.5 L 393.0 573.5 L 394.0 573.5 L 395.0 573.5 L 396.0 573.5 L 396.5 574.0 L 397.0 574.5 L 398.0 574.5 L 399.0 574.5 L 400.0 574.5 L 401.0 574.5 L 402.0 574.5 L 403.0 574.5 L 404.0 574.5 L 405.0 574.5 L 406.0 574.5 L 407.0 574.5 L 408.0 574.5 L 409.0 574.5 L 410.0 574.5 L 411.0 574.5 L 412.0 574.5 L 413.0 574.5 L 414.0 574.5 L 415.0 574.5 L 416.0 574.5 L 417.0 574.5 L 418.0 574.5 L 419.0 574.5 L 420.0 574.5 L 421.0 574.5 L 422.0 574.5 L 423.0 574.5 L 424.0 574.5 L 425.0 574.5 L 426.0 574.5 L 426.5 574.0 L 427.0 573.5 L 428.0 573.5 L 429.0 573.5 L 430.0 573.5 L 431.0 573.5 L 432.0 573.5 L 433.0 573.5 L 434.0 573.5 L 435.0 573.5 L 436.0 573.5 L 437.0 573.5 L 438.0 573.5 L 438.5 573.0 L 439.0 572.5 L 440.0 572.5 L 441.0 572.5 L 442.0 572.5 L 443.0 572.5 L 444.0 572.5 L 445.0 572.5 L 446.0 572.5 L 446.5 572.0 L 447.0 571.5 L 448.0 571.5 L 449.0 571.5 L 450.0 571.5 L 451.0 571.5 L 452.0 571.5 L 452.5 571.0 L 453.0 570.5 L 454.0 570.5 L 455.0 570.5 L 456.0 570.5 L 457.0 570.5 L 458.0 570.5 L 458.5 570.0 L 459.0 569.5 L 460.0 569.5 L 461.0 569.5 L 462.0 569.5 L 463.0 569.5 L 463.5 569.0 L 464.0 568.5 L 465.0 568.5 L 466.0 568.5 L 467.0 568.5 L 468.0 568.5 L 468.5 568.0 L 469.0 567.5 L 470.0 567.5 L 471.0 567.5 L 472.0 567.5 L 472.5 567.0 L 473.0 566.5 L 474.0 566.5 L 475.0 566.5 L 476.0 566.5 L 476.5 566.0 L 477.0 565.5 L 478.0 565.5 L 479.0 565.5 L 480.0 565.5 L 480.5 565.0 L 481.0 564.5 L 482.0 564.5 L 483.0 564.5 L 483.5 564.0 L 484.0 563.5 L 485.0 563.5 L 486.0 563.5 L 486.5 563.0 L 487.0 562.5 L 488.0 562.5 L 489.0 562.5 L 490.0 562.5 L 490.5 562.0 L 491.0 561.5 L 492.0 561.5 L 493.0 561.5 L 493.5 561.0 L 494.0 560.5 L 495.0 560.5 L 496.0 560.5 L 496.5 560.0 L 497.0 559.5 L 498.0 559.5 L 498.5 559.0 L 499.0 558.5 L 500.0 558.5 L 501.0 558.5 L 501.5 558.0 L 502.0 557.5 L 503.0 557.5 L 504.0 557.5 L 504.5 557.0 L 505.0 556.5 L 506.0 556.5 L 506.5 556.0 L 507.0 555.5 L 508.0 555.5 L 509.0 555.5 L 509.5 555.0 L 510.0 554.5 L 511.0 554.5 L 511.5 554.0 L 512.0 553.5 L 513.0 553.5 L 513.5 553.0 L 514.0 552.5 L 515.0 552.5 L 516.0 552.5 L 516.5 552.0 L 517.0 551.5 L 518.0 551.5 L 518.5 551.0 L 519.0 550.5 L 520.0 550.5 L 520.5 550.0 L 521.0 549.5 L 522.0 549.5 L 522.5 549.0 L 523.0 548.5 L 524.0 548.5 L 524.5 548.0 L 525.0 547.5 L 526.0 547.5 L 526.5 547.0 L 527.0 546.5 L 528.0 546.5 L 528.5 546.0 L 529.0 545.5 L 530.0 545.5 L 530.5 545.0 L 531.0 544.5 L 532.0 544.5 L 532.5 544.0 L 533.0 543.5 L 534.0 543.5 L 534.5 543.0 L 535.0 542.5 L 536.0 542.5 L 536.5 542.0 L 537.0 541.5 L 538.0 541.5 L 538.5 541.0 L 539.0 540.5 L 539.5 540.0 L 540.0 539.5 L 541.0 539.5 L 541.5 539.0 L 542.0 538.5 L 543.0 538.5 L 543.5 538.0 L 544.0 537.5 L 544.5 537.0 L 545.0 536.5 L 546.0 536.5 L 546.5 536.0 L 547.0 535.5 L 548.0 535.5 L 548.5 535.0 L 549.0 534.5 L 549.5 534.0 L 550.0 533.5 L 551.0 533.5 L 551.5 533.0 L 552.0 532.5 L 552.5 532.0 L 553.0 531.5 L 554.0 531.5 L 554.5 531.0 L 555.0 530.5 L 555.5 530.0 L 556.0 529.5 L 557.0 529.5 L 557.5 529.0 L 558.0 528.5 L 558.5 528.0 L 559.0 527.5 L 560.0 527.5 L 560.5 527.0 L 561.0 526.5 L 561.5 526.0 L 562.0 525.5 L 562.5 525.0 L 563.0 524.5 L 564.0 524.5 L 564.5 524.0 L 565.0 523.5 L 565.5 523.0 L 566.0 522.5 L 566.5 522.0 L 567.0 521.5 L 568.0 521.5 L 568.5 521.0 L 569.0 520.5 L 569.5 520.0 L 570.0 519.5 L 570.5 519.0 L 571.0 518.5 L 572.0 518.5 L 572.5 518.0 L 573.0 517.5 L 573.5 517.0 L 574.0 516.5 L 574.5 516.0 L 575.0 515.5 L 575.5 515.0 L 576.0 514.5 L 576.5 514.0 L 577.0 513.5 L 578.0 513.5 L 578.5 513.0 L 579.0 512.5 L 579.5 512.0 L 580.0 511.5 L 580.5 511.0 L 581.0 510.5 L 581.5 510.0 L 582.0 509.5 L 582.5 509.0 L 583.0 508.5 L 583.5 508.0 L 584.0 507.5 L 584.5 507.0 L 585.0 506.5 L 585.5 506.0 L 586.0 505.5 L 587.0 505.5 L 587.5 505.0 L 588.0 504.5 L 588.5 504.0 L 589.0 503.5 L 589.5 503.0 L 590.0 502.5 L 590.5 502.0 L 591.0 501.5 L 591.5 501.0 L 592.0 500.5 L 592.5 500.0 L 593.0 499.5 L 593.5 499.0 L 594.0 498.5 L 594.5 498.0 L 595.0 497.5 L 595.5 497.0 L 596.0 496.5 L 596.5 496.0 L 597.0 495.5 L 597.5 495.0 L 598.0 494.5 L 598.5 494.0 L 599.0 493.5 L 599.5 493.0 L 600.0 492.5 L 600.5 492.0 L 600.5 491.0 L 601.0 490.5 L 601.5 490.0 L 602.0 489.5 L 602.5 489.0 L 603.0 488.5 L 603.5 488.0 L 604.0 487.5 L 604.5 487.0 L 605.0 486.5 L 605.5 486.0 L 606.0 485.5 L 606.5 485.0 L 607.0 484.5 L 607.5 484.0 L 608.0 483.5 L 608.5 483.0 L 608.5 482.0 L 609.0 481.5 L 609.5 481.0 L 610.0 480.5 L 610.5 480.0 L 611.0 479.5 L 611.5 479.0 L 612.0 478.5 L 612.5 478.0 L 613.0 477.5 L 613.5 477.0 L 613.5 476.0 L 614.0 475.5 L 614.5 475.0 L 615.0 474.5 L 615.5 474.0 L 616.0 473.5 L 616.5 473.0 L 616.5 472.0 L 617.0 471.5 L 617.5 471.0 L 618.0 470.5 L 618.5 470.0 L 619.0 469.5 L 619.5 469.0 L 619.5 468.0 L 620.0 467.5 L 620.5 467.0 L 621.0 466.5 L 621.5 466.0 L 622.0 465.5 L 622.5 465.0 L 622.5 464.0 L 623.0 463.5 L 623.5 463.0 L 624.0 462.5 L 624.5 462.0 L 624.5 461.0 L 625.0 460.5 L 625.5 460.0 L 626.0 459.5 L 626.5 459.0 L 626.5 458.0 L 627.0 457.5 L 627.5 457.0 L 628.0 456.5 L 628.5 456.0 L 628.5 455.0 L 629.0 454.5 L 629.5 454.0 L 630.0 453.5 L 630.5 453.0 L 630.5 452.0 L 631.0 451.5 L 631.5 451.0 L 631.5 450.0 L 632.0 449.5 L 632.5 449.0 L 633.0 448.5 L 633.5 448.0 L 633.5 447.0 L 634.0 446.5 L 634.5 446.0 L 634.5 445.0 L 635.0 444.5 L 635.5 444.0 L 636.0 443.5 L 636.5 443.0 L 636.5 442.0 L 637.0 441.5 L 637.5 441.0 L 637.5 440.0 L 638.0 439.5 L 638.5 439.0 L 638.5 438.0 L 639.0 437.5 L 639.5 437.0 L 639.5 436.0 L 640.0 435.5 L 640.5 435.0 L 640.5 434.0 L 641.0 433.5 L 641.5 433.0 L 641.5 432.0 L 642.0 431.5 L 642.5 431.0 L 642.5 430.0 L 643.0 429.5 L 643.5 429.0 L 643.5 428.0 L 644.0 427.5 L 644.5 427.0 L 644.5 426.0 L 645.0 425.5 L 645.5 425.0 L 645.5 424.0 L 646.0 423.5 L 646.5 423.0 L 646.5 422.0 L 647.0 421.5 L 647.5 421.0 L 647.5 420.0 L 647.5 419.0 L 648.0 418.5 L 648.5 418.0 L 648.5 417.0 L 649.0 416.5 L 649.5 416.0 L 649.5 415.0 L 650.0 414.5 L 650.5 414.0 L 650.5 413.0 L 650.5 412.0 L 651.0 411.5 L 651.5 411.0 L 651.5 410.0 L 652.0 409.5 L 652.5 409.0 L 652.5 408.0 L 652.5 407.0 L 653.0 406.5 L 653.5 406.0 L 653.5 405.0 L 653.5 404.0 L 654.0 403.5 L 654.5 403.0 L 654.5 402.0 L 655.0 401.5 L 655.5 401.0 L 655.5 400.0 L 655.5 399.0 L 656.0 398.5 L 656.5 399.0 L 656.5 400.0 L 656.5 401.0 L 656.5 402.0 L 656.5 403.0 L 656.0 403.5 L 655.5 404.0 L 655.5 405.0 L 655.5 406.0 L 655.5 407.0 L 655.0 407.5 L 654.5 408.0 L 654.5 409.0 L 654.5 410.0 L 654.5 411.0 L 654.5 412.0 L 654.0 412.5 L 653.5 413.0 L 653.5 414.0 L 653.5 415.0 L 653.0 415.5 L 652.5 416.0 L 652.5 417.0 L 652.5 418.0 L 652.5 419.0 L 652.0 419.5 L 651.5 420.0 L 651.5 421.0 L 651.5 422.0 L 651.5 423.0 L 651.0 423.5 L 650.5 424.0 L 650.5 425.0 L 650.5 426.0 L 650.0 426.5 L 649.5 427.0 L 649.5 428.0 L 649.5 429.0 L 649.0 429.5 L 648.5 430.0 L 648.5 431.0 L 648.5 432.0 L 648.0 432.5 L 647.5 433.0 L 647.5 434.0 L 647.5 435.0 L 647.0 435.5 L 646.5 436.0 L 646.5 437.0 L 646.5 438.0 L 646.0 438.5 L 645.5 439.0 L 645.5 440.0 L 645.5 441.0 L 645.0 441.5 L 644.5 442.0 L 644.5 443.0 L 644.0 443.5 L 643.5 444.0 L 643.5 445.0 L 643.5 446.0 L 643.0 446.5 L 642.5 447.0 L 642.5 448.0 L 642.0 448.5 L 641.5 449.0 L 641.5 450.0 L 641.5 451.0 L 641.0 451.5 L 640.5 452.0 L 640.5 453.0 L 640.0 453.5 L 639.5 454.0 L 639.5 455.0 L 639.0 455.5 L 638.5 456.0 L 638.5 457.0 L 638.5 458.0 L 638.0 458.5 L 637.5 459.0 L 637.5 460.0 L 637.0 460.5 L 636.5 461.0 L 636.5 462.0 L 636.0 462.5 L 635.5 463.0 L 635.5 464.0 L 635.0 464.5 L 634.5 465.0 L 634.5 466.0 L 634.0 466.5 L 633.5 467.0 L 633.5 468.0 L 633.0 468.5 L 632.5 469.0 L 632.5 470.0 L 632.0 470.5 L 631.5 471.0 L 631.5 472.0 L 631.0 472.5 L 630.5 473.0 L 630.5 474.0 L 630.0 474.5 L 629.5 475.0 L 629.5 476.0 L 629.0 476.5 L 628.5 477.0 L 628.5 478.0 L 628.0 478.5 L 627.5 479.0 L 627.5 480.0 L 627.0 480.5 L 626.5 481.0 L 626.0 481.5 L 625.5 482.0 L 625.5 483.0 L 625.0 483.5 L 624.5 484.0 L 624.5 485.0 L 624.0 485.5 L 623.5 486.0 L 623.0 486.5 L 622.5 487.0 L 622.5 488.0 L 622.0 488.5 L 621.5 489.0 L 621.5 490.0 L 621.0 490.5 L 620.5 491.0 L 620.0 491.5 L 619.5 492.0 L 619.5 493.0 L 619.0 493.5 L 618.5 494.0 L 618.0 494.5 L 617.5 495.0 L 617.5 496.0 L 617.0 496.5 L 616.5 497.0 L 616.5 498.0 L 616.0 498.5 L 615.5 499.0 L 615.0 499.5 L 614.5 500.0 L 614.0 500.5 L 613.5 501.0 L 613.5 502.0 L 613.0 502.5 L 612.5 503.0 L 612.0 503.5 L 611.5 504.0 L 611.5 505.0 L 611.0 505.5 L 610.5 506.0 L 610.0 506.5 L 609.5 507.0 L 609.5 508.0 L 609.0 508.5 L 608.5 509.0 L 608.0 509.5 L 607.5 510.0 L 607.0 510.5 L 606.5 511.0 L 606.5 512.0 L 606.0 512.5 L 605.5 513.0 L 605.0 513.5 L 604.5 514.0 L 604.0 514.5 L 603.5 515.0 L 603.0 515.5 L 602.5 516.0 L 602.5 517.0 L 602.0 517.5 L 601.5 518.0 L 601.0 518.5 L 600.5 519.0 L 600.0 519.5 L 599.5 520.0 L 599.0 520.5 L 598.5 521.0 L 598.5 522.0 L 598.0 522.5 L 597.5 523.0 L 597.0 523.5 L 596.5 524.0 L 596.0 524.5 L 595.5 525.0 L 595.0 525.5 L 594.5 526.0 L 594.0 526.5 L 593.5 527.0 L 593.0 527.5 L 592.5 528.0 L 592.5 529.0 L 592.0 529.5 L 591.5 530.0 L 591.0 530.5 L 590.5 531.0 L 590.0 531.5 L 589.5 532.0 L 589.0 532.5 L 588.5 533.0 L 588.0 533.5 L 587.5 534.0 L 587.0 534.5 L 586.5 535.0 L 586.0 535.5 L 585.5 536.0 L 585.0 536.5 L 584.5 537.0 L 584.0 537.5 L 583.5 538.0 L 583.0 538.5 L 582.5 539.0 L 582.0 539.5 L 581.5 540.0 L 581.0 540.5 L 580.5 541.0 L 580.0 541.5 L 579.5 542.0 L 579.0 542.5 L 578.5 543.0 L 578.0 543.5 L 577.5 544.0 L 577.0 544.5 L 576.5 545.0 L 576.0 545.5 L 575.5 546.0 L 575.0 546.5 L 574.5 547.0 L 574.0 547.5 L 573.5 548.0 L 573.0 548.5 L 572.5 549.0 L 572.0 549.5 L 571.5 550.0 L 571.0 550.5 L 570.5 551.0 L 570.0 551.5 L 569.5 552.0 L 569.0 552.5 L 568.0 552.5 L 567.5 553.0 L 567.0 553.5 L 566.5 554.0 L 566.0 554.5 L 565.5 555.0 L 565.0 555.5 L 564.5 556.0 L 564.0 556.5 L 563.5 557.0 L 563.0 557.5 L 562.5 558.0 L 562.0 558.5 L 561.0 558.5 L 560.5 559.0 L 560.0 559.5 L 559.5 560.0 L 559.0 560.5 L 558.5 561.0 L 558.0 561.5 L 557.5 562.0 L 557.0 562.5 L 556.0 562.5 L 555.5 563.0 L 555.0 563.5 L 554.5 564.0 L 554.0 564.5 L 553.5 565.0 L 553.0 565.5 L 552.5 566.0 L 552.0 566.5 L 551.0 566.5 L 550.5 567.0 L 550.0 567.5 L 549.5 568.0 L 549.0 568.5 L 548.5 569.0 L 548.0 569.5 L 547.0 569.5 L 546.5 570.0 L 546.0 570.5 L 545.5 571.0 L 545.0 571.5 L 544.0 571.5 L 543.5 572.0 L 543.0 572.5 L 542.5 573.0 L 542.0 573.5 L 541.0 573.5 L 540.5 574.0 L 540.0 574.5 L 539.5 575.0 L 539.0 575.5 L 538.0 575.5 L 537.5 576.0 L 537.0 576.5 L 536.5 577.0 L 536.0 577.5 L 535.0 577.5 L 534.5 578.0 L 534.0 578.5 L 533.5 579.0 L 533.0 579.5 L 532.0 579.5 L 531.5 580.0 L 531.0 580.5 L 530.5 581.0 L 530.0 581.5 L 529.0 581.5 L 528.5 582.0 L 528.0 582.5 L 527.0 582.5 L 526.5 583.0 L 526.0 583.5 L 525.5 584.0 L 525.0 584.5 L 524.0 584.5 L 523.5 585.0 L 523.0 585.5 L 522.0 585.5 L 521.5 586.0 L 521.0 586.5 L 520.0 586.5 L 519.5 587.0 L 519.0 587.5 L 518.5 588.0 L 518.0 588.5 L 517.0 588.5 L 516.5 589.0 L 516.0 589.5 L 515.0 589.5 L 514.5 590.0 L 514.0 590.5 L 513.0 590.5 L 512.5 591.0 L 512.0 591.5 L 511.0 591.5 L 510.5 592.0 L 510.0 592.5 L 509.0 592.5 L 508.5 593.0 L 508.0 593.5 L 507.0 593.5 L 506.5 594.0 L 506.0 594.5 L 505.0 594.5 L 504.5 595.0 L 504.0 595.5 L 503.0 595.5 L 502.5 596.0 L 502.0 596.5 L 501.0 596.5 L 500.5 597.0 L 500.0 597.5 L 499.0 597.5 L 498.5 598.0 L 498.0 598.5 L 497.0 598.5 L 496.0 598.5 L 495.5 599.0 L 495.0 599.5 L 494.0 599.5 L 493.5 600.0 L 493.0 600.5 L 492.0 600.5 L 491.5 601.0 L 491.0 601.5 L 490.0 601.5 L 489.0 601.5 L 488.5 602.0 L 488.0 602.5 L 487.0 602.5 L 486.5 603.0 L 486.0 603.5 L 485.0 603.5 L 484.0 603.5 L 483.5 604.0 L 483.0 604.5 L 482.0 604.5 L 481.5 605.0 L 481.0 605.5 L 480.0 605.5 L 479.0 605.5 L 478.5 606.0 L 478.0 606.5 L 477.0 606.5 L 476.0 606.5 L 475.5 607.0 L 475.0 607.5 L 474.0 607.5 L 473.0 607.5 L 472.5 608.0 L 472.0 608.5 L 471.0 608.5 L 470.0 608.5 L 469.5 609.0 L 469.0 609.5 L 468.0 609.5 L 467.0 609.5 L 466.5 610.0 L 466.0 610.5 L 465.0 610.5 L 464.0 610.5 L 463.0 610.5 L 462.5 611.0 L 462.0 611.5 L 461.0 611.5 L 460.0 611.5 L 459.5 612.0 L 459.0 612.5 L 458.0 612.5 L 457.0 612.5 L 456.0 612.5 L 455.5 613.0 L 455.0 613.5 L 454.0 613.5 L 453.0 613.5 L 452.0 613.5 L 451.5 614.0 L 451.0 614.5 L 450.0 614.5 L 449.0 614.5 L 448.0 614.5 L 447.5 615.0 L 447.0 615.5 L 446.0 615.5 L 445.0 615.5 L 444.0 615.5 L 443.5 616.0 L 443.0 616.5 L 442.0 616.5 L 441.0 616.5 L 440.0 616.5 L 439.0 616.5 L 438.5 617.0 L 438.0 617.5 L 437.0 617.5 L 436.0 617.5 L 435.0 617.5 L 434.0 617.5 L 433.5 618.0 L 433.0 618.5 L 432.0 618.5 L 431.0 618.5 L 430.0 618.5 L 429.0 618.5 L 428.0 618.5 L 427.5 619.0 L 427.0 619.5 L 426.0 619.5 L 425.0 619.5 L 424.0 619.5 L 423.0 619.5 L 422.0 619.5 L 421.0 619.5 L 420.5 620.0 L 420.0 620.5 L 419.0 620.5 L 418.0 620.5 L 417.0 620.5 L 416.0 620.5 L 415.0 620.5 L 414.0 620.5 L 413.0 620.5 L 412.0 620.5 L 411.5 621.0 L 411.0 621.5 L 410.0 621.5 L 409.0 621.5 L 408.0 621.5 L 407.0 621.5 L 406.0 621.5 L 405.0 621.5 L 404.0 621.5 L 403.0 621.5 L 402.0 621.5 L 401.0 621.5 L 400.0 621.5 L 399.0 621.5 L 398.0 621.5 L 397.5 622.0 L 397.0 622.5 Z" fill="orange" stroke="black" stroke-width="1" /><path d="M 430.0 331.5 L 429.0 331.5 L 428.0 331.5 L 427.5 331.0 L 427.0 330.5 L 426.0 330.5 L 425.5 330.0 L 425.0 329.5 L 424.5 329.0 L 424.0 328.5 L 423.5 328.0 L 424.0 327.5 L 424.5 327.0 L 424.5 326.0 L 425.0 325.5 L 425.5 325.0 L 425.5 324.0 L 426.0 323.5 L 426.5 323.0 L 426.5 322.0 L 427.0 321.5 L 427.5 321.0 L 427.5 320.0 L 428.0 319.5 L 428.5 319.0 L 428.0 318.5 L 427.0 318.5 L 426.0 318.5 L 425.0 318.5 L 424.5 318.0 L 424.5 317.0 L 424.5 316.0 L 424.5 315.0 L 424.5 314.0 L 424.5 313.0 L 424.5 312.0 L 424.5 311.0 L 424.5 310.0 L 424.5 309.0 L 424.5 308.0 L 424.5 307.0 L 424.5 306.0 L 424.0 305.5 L 423.5 305.0 L 423.5 304.0 L 423.0 303.5 L 422.5 303.0 L 422.0 302.5 L 421.5 302.0 L 421.5 301.0 L 421.0 300.5 L 420.5 300.0 L 420.0 299.5 L 419.5 299.0 L 419.0 298.5 L 418.5 299.0 L 418.0 299.5 L 417.5 300.0 L 417.0 300.5 L 416.5 301.0 L 416.0 301.5 L 415.0 301.5 L 414.0 301.5 L 413.0 301.5 L 412.5 301.0 L 412.0 300.5 L 411.5 301.0 L 411.0 301.5 L 410.5 302.0 L 410.5 303.0 L 410.0 303.5 L 409.5 304.0 L 409.5 305.0 L 409.0 305.5 L 408.0 305.5 L 407.0 305.5 L 406.0 305.5 L 405.0 305.5 L 404.0 305.5 L 403.5 305.0 L 403.5 304.0 L 403.0 303.5 L 402.5 303.0 L 402.0 302.5 L 401.0 302.5 L 400.5 303.0 L 400.0 303.5 L 399.5 304.0 L 399.5 305.0 L 400.0 305.5 L 400.5 306.0 L 400.5 307.0 L 400.5 308.0 L 400.0 308.5 L 399.0 308.5 L 398.0 308.5 L 397.0 308.5 L 396.0 308.5 L 395.5 309.0 L 395.0 309.5 L 394.5 310.0 L 394.0 310.5 L 393.0 310.5 L 392.0 310.5 L 391.0 310.5 L 390.0 310.5 L 389.5 310.0 L 389.0 309.5 L 388.0 309.5 L 387.5 309.0 L 387.0 308.5 L 386.5 309.0 L 386.0 309.5 L 385.5 310.0 L 385.5 311.0 L 385.0 311.5 L 384.0 311.5 L 383.0 311.5 L 382.5 311.0 L 382.0 310.5 L 381.0 310.5 L 380.5 310.0 L 380.0 309.5 L 379.0 309.5 L 378.5 310.0 L 379.0 310.5 L 379.5 311.0 L 379.5 312.0 L 379.5 313.0 L 379.0 313.5 L 378.5 314.0 L 378.5 315.0 L 378.5 316.0 L 378.5 317.0 L 378.5 318.0 L 379.0 318.5 L 379.5 319.0 L 379.5 320.0 L 379.0 320.5 L 378.0 320.5 L 377.0 320.5 L 376.5 321.0 L 376.0 321.5 L 375.0 321.5 L 374.0 321.5 L 373.0 321.5 L 372.0 321.5 L 371.0 321.5 L 370.5 322.0 L 370.5 323.0 L 370.0 323.5 L 369.5 324.0 L 369.5 325.0 L 369.5 326.0 L 369.0 326.5 L 368.0 326.5 L 367.5 326.0 L 367.5 325.0 L 367.0 324.5 L 366.0 324.5 L 365.0 324.5 L 364.5 325.0 L 364.0 325.5 L 363.0 325.5 L 362.5 326.0 L 362.0 326.5 L 361.0 326.5 L 360.5 327.0 L 360.0 327.5 L 359.0 327.5 L 358.0 327.5 L 357.5 327.0 L 357.5 326.0 L 357.0 325.5 L 356.0 325.5 L 355.5 326.0 L 355.5 327.0 L 355.0 327.5 L 354.5 328.0 L 354.5 329.0 L 354.0 329.5 L 353.0 329.5 L 352.0 329.5 L 351.5 330.0 L 351.0 330.5 L 350.0 330.5 L 349.0 330.5 L 348.0 330.5 L 347.0 330.5 L 346.0 330.5 L 345.0 330.5 L 344.0 330.5 L 343.0 330.5 L 342.5 330.0 L 342.5 329.0 L 342.5 328.0 L 342.5 327.0 L 343.0 326.5 L 343.5 326.0 L 344.0 325.5 L 344.5 325.0 L 345.0 324.5 L 346.0 324.5 L 346.5 324.0 L 346.5 323.0 L 347.0 322.5 L 347.5 322.0 L 348.0 321.5 L 348.5 321.0 L 348.5 320.0 L 349.0 319.5 L 349.5 319.0 L 349.5 318.0 L 350.0 317.5 L 350.5 317.0 L 350.5 316.0 L 351.0 315.5 L 351.5 315.0 L 352.0 314.5 L 352.5 314.0 L 353.0 313.5 L 353.5 313.0 L 354.0 312.5 L 354.5 312.0 L 355.0 311.5 L 355.5 311.0 L 355.5 310.0 L 355.5 309.0 L 356.0 308.5 L 356.5 308.0 L 356.5 307.0 L 357.0 306.5 L 357.5 306.0 L 357.5 305.0 L 358.0 304.5 L 358.5 304.0 L 358.5 303.0 L 358.5 302.0 L 358.5 301.0 L 358.5 300.0 L 359.0 299.5 L 359.5 299.0 L 359.0 298.5 L 358.0 298.5 L 357.0 298.5 L 356.5 299.0 L 356.0 299.5 L 355.5 300.0 L 355.0 300.5 L 354.0 300.5 L 353.5 301.0 L 353.0 301.5 L 352.5 302.0 L 352.0 302.5 L 351.0 302.5 L 350.5 303.0 L 350.0 303.5 L 349.0 303.5 L 348.0 303.5 L 347.5 303.0 L 347.5 302.0 L 347.0 301.5 L 346.5 301.0 L 346.0 300.5 L 345.5 300.0 L 345.5 299.0 L 345.0 298.5 L 344.5 298.0 L 345.0 297.5 L 345.5 297.0 L 346.0 296.5 L 347.0 296.5 L 347.5 296.0 L 348.0 295.5 L 348.5 295.0 L 349.0 294.5 L 350.0 294.5 L 350.5 294.0 L 351.0 293.5 L 352.0 293.5 L 352.5 293.0 L 353.0 292.5 L 353.5 292.0 L 353.5 291.0 L 354.0 290.5 L 354.5 290.0 L 354.5 289.0 L 354.5 288.0 L 354.5 287.0 L 354.5 286.0 L 354.5 285.0 L 354.5 284.0 L 354.5 283.0 L 354.5 282.0 L 354.5 281.0 L 354.5 280.0 L 354.5 279.0 L 354.5 278.0 L 355.0 277.5 L 355.5 277.0 L 355.5 276.0 L 355.0 275.5 L 354.5 275.0 L 354.5 274.0 L 355.0 273.5 L 355.5 273.0 L 355.5 272.0 L 356.0 271.5 L 356.5 271.0 L 357.0 270.5 L 357.5 270.0 L 357.5 269.0 L 357.5 268.0 L 357.5 267.0 L 358.0 266.5 L 358.5 266.0 L 359.0 265.5 L 359.5 265.0 L 360.0 264.5 L 360.5 264.0 L 361.0 263.5 L 361.5 263.0 L 362.0 262.5 L 362.5 262.0 L 362.5 261.0 L 363.0 260.5 L 363.5 260.0 L 364.0 259.5 L 364.5 259.0 L 364.5 258.0 L 365.0 257.5 L 365.5 257.0 L 366.0 256.5 L 366.5 256.0 L 366.0 255.5 L 365.5 255.0 L 366.0 254.5 L 366.5 254.0 L 366.0 253.5 L 365.5 253.0 L 365.5 252.0 L 365.5 251.0 L 366.0 250.5 L 366.5 250.0 L 366.5 249.0 L 366.0 248.5 L 365.5 248.0 L 365.5 247.0 L 366.0 246.5 L 366.5 246.0 L 367.0 245.5 L 368.0 245.5 L 368.5 245.0 L 369.0 244.5 L 369.5 244.0 L 370.0 243.5 L 370.5 243.0 L 371.0 242.5 L 371.5 242.0 L 372.0 241.5 L 372.5 241.0 L 373.0 240.5 L 373.5 240.0 L 374.0 239.5 L 374.5 239.0 L 375.0 238.5 L 375.5 238.0 L 376.0 237.5 L 376.5 237.0 L 376.5 236.0 L 377.0 235.5 L 377.5 235.0 L 378.0 234.5 L 378.5 234.0 L 378.5 233.0 L 379.0 232.5 L 379.5 232.0 L 379.5 231.0 L 380.0 230.5 L 380.5 230.0 L 381.0 229.5 L 382.0 229.5 L 383.0 229.5 L 384.0 229.5 L 384.5 229.0 L 385.0 228.5 L 385.5 228.0 L 386.0 227.5 L 386.5 227.0 L 387.0 226.5 L 388.0 226.5 L 389.0 226.5 L 389.5 226.0 L 390.0 225.5 L 391.0 225.5 L 391.5 225.0 L 392.0 224.5 L 393.0 224.5 L 394.0 224.5 L 394.5 224.0 L 395.0 223.5 L 396.0 223.5 L 396.5 223.0 L 397.0 222.5 L 397.5 222.0 L 398.0 221.5 L 399.0 221.5 L 400.0 221.5 L 401.0 221.5 L 401.5 221.0 L 402.0 220.5 L 402.5 220.0 L 403.0 219.5 L 403.5 219.0 L 404.0 218.5 L 405.0 218.5 L 405.5 218.0 L 406.0 217.5 L 407.0 217.5 L 407.5 217.0 L 408.0 216.5 L 409.0 216.5 L 409.5 216.0 L 410.0 215.5 L 411.0 215.5 L 411.5 215.0 L 412.0 214.5 L 412.5 214.0 L 413.0 213.5 L 413.5 213.0 L 414.0 212.5 L 414.5 212.0 L 415.0 211.5 L 415.5 211.0 L 416.0 210.5 L 416.5 210.0 L 416.5 209.0 L 417.0 208.5 L 417.5 208.0 L 418.0 207.5 L 418.5 207.0 L 418.5 206.0 L 418.5 205.0 L 419.0 204.5 L 419.5 204.0 L 420.0 203.5 L 420.5 203.0 L 420.5 202.0 L 421.0 201.5 L 421.5 201.0 L 421.5 200.0 L 422.0 199.5 L 422.5 199.0 L 422.5 198.0 L 423.0 197.5 L 423.5 197.0 L 423.5 196.0 L 424.0 195.5 L 424.5 195.0 L 424.5 194.0 L 425.0 193.5 L 425.5 193.0 L 425.5 192.0 L 426.0 191.5 L 426.5 191.0 L 426.5 190.0 L 426.5 189.0 L 427.0 188.5 L 427.5 188.0 L 427.5 187.0 L 427.5 186.0 L 428.0 185.5 L 428.5 185.0 L 428.5 184.0 L 428.5 183.0 L 429.0 182.5 L 429.5 182.0 L 429.5 181.0 L 430.0 180.5 L 430.5 180.0 L 430.5 179.0 L 430.5 178.0 L 431.0 177.5 L 431.5 177.0 L 431.5 176.0 L 432.0 175.5 L 432.5 175.0 L 432.5 174.0 L 432.5 173.0 L 432.5 172.0 L 432.5 171.0 L 433.0 170.5 L 433.5 170.0 L 433.5 169.0 L 433.5 168.0 L 434.0 167.5 L 435.0 167.5 L 436.0 167.5 L 437.0 167.5 L 437.5 167.0 L 438.0 166.5 L 439.0 166.5 L 440.0 166.5 L 441.0 166.5 L 441.5 166.0 L 442.0 165.5 L 442.5 165.0 L 443.0 164.5 L 444.0 164.5 L 445.0 164.5 L 445.5 165.0 L 446.0 165.5 L 446.5 166.0 L 446.5 167.0 L 446.5 168.0 L 446.5 169.0 L 447.0 169.5 L 447.5 170.0 L 448.0 170.5 L 448.5 171.0 L 448.5 172.0 L 448.5 173.0 L 449.0 173.5 L 449.5 174.0 L 450.0 174.5 L 450.5 175.0 L 451.0 175.5 L 451.5 176.0 L 452.0 176.5 L 452.5 177.0 L 453.0 177.5 L 453.5 178.0 L 454.0 178.5 L 454.5 179.0 L 455.0 179.5 L 456.0 179.5 L 456.5 180.0 L 457.0 180.5 L 457.5 181.0 L 458.0 181.5 L 459.0 181.5 L 459.5 182.0 L 460.0 182.5 L 461.0 182.5 L 462.0 182.5 L 463.0 182.5 L 464.0 182.5 L 464.5 183.0 L 465.0 183.5 L 466.0 183.5 L 467.0 183.5 L 467.5 183.0 L 468.0 182.5 L 469.0 182.5 L 470.0 182.5 L 471.0 182.5 L 471.5 182.0 L 472.0 181.5 L 473.0 181.5 L 474.0 181.5 L 474.5 181.0 L 475.0 180.5 L 475.5 181.0 L 476.0 181.5 L 476.5 182.0 L 477.0 182.5 L 477.5 182.0 L 478.0 181.5 L 478.5 181.0 L 479.0 180.5 L 480.0 180.5 L 481.0 180.5 L 481.5 181.0 L 482.0 181.5 L 483.0 181.5 L 483.5 182.0 L 484.0 182.5 L 485.0 182.5 L 486.0 182.5 L 487.0 182.5 L 488.0 182.5 L 488.5 182.0 L 489.0 181.5 L 490.0 181.5 L 490.5 181.0 L 491.0 180.5 L 492.0 180.5 L 492.5 180.0 L 492.5 179.0 L 493.0 178.5 L 493.5 178.0 L 493.5 177.0 L 494.0 176.5 L 495.0 176.5 L 495.5 177.0 L 495.5 178.0 L 495.5 179.0 L 495.5 180.0 L 496.0 180.5 L 496.5 181.0 L 497.0 181.5 L 497.5 182.0 L 498.0 182.5 L 498.5 183.0 L 499.0 183.5 L 499.5 184.0 L 500.0 184.5 L 501.0 184.5 L 501.5 185.0 L 502.0 185.5 L 503.0 185.5 L 503.5 185.0 L 504.0 184.5 L 504.5 184.0 L 505.0 183.5 L 506.0 183.5 L 506.5 184.0 L 507.0 184.5 L 508.0 184.5 L 509.0 184.5 L 509.5 185.0 L 510.0 185.5 L 510.5 186.0 L 511.0 186.5 L 511.5 187.0 L 512.0 187.5 L 512.5 188.0 L 513.0 188.5 L 514.0 188.5 L 515.0 188.5 L 515.5 189.0 L 515.5 190.0 L 516.0 190.5 L 516.5 191.0 L 517.0 191.5 L 517.5 192.0 L 518.0 192.5 L 518.5 193.0 L 519.0 193.5 L 520.0 193.5 L 520.5 194.0 L 520.0 194.5 L 519.5 195.0 L 519.5 196.0 L 519.0 196.5 L 518.5 197.0 L 519.0 197.5 L 519.5 198.0 L 519.5 199.0 L 520.0 199.5 L 521.0 199.5 L 521.5 200.0 L 521.0 200.5 L 520.5 201.0 L 520.5 202.0 L 520.0 202.5 L 519.5 203.0 L 520.0 203.5 L 520.5 204.0 L 520.5 205.0 L 520.5 206.0 L 520.5 207.0 L 521.0 207.5 L 521.5 208.0 L 521.5 209.0 L 521.5 210.0 L 521.5 211.0 L 521.5 212.0 L 521.5 213.0 L 521.5 214.0 L 521.5 215.0 L 521.5 216.0 L 521.5 217.0 L 521.5 218.0 L 521.0 218.5 L 520.5 219.0 L 521.0 219.5 L 521.5 220.0 L 522.0 220.5 L 522.5 221.0 L 522.5 222.0 L 522.5 223.0 L 523.0 223.5 L 523.5 224.0 L 523.0 224.5 L 522.5 225.0 L 522.5 226.0 L 522.0 226.5 L 521.5 227.0 L 521.5 228.0 L 521.5 229.0 L 521.5 230.0 L 522.0 230.5 L 522.5 231.0 L 523.0 231.5 L 523.5 232.0 L 523.5 233.0 L 524.0 233.5 L 524.5 234.0 L 525.0 234.5 L 525.5 235.0 L 525.5 236.0 L 525.5 237.0 L 525.0 237.5 L 524.5 238.0 L 525.0 238.5 L 525.5 239.0 L 525.5 240.0 L 526.0 240.5 L 526.5 241.0 L 527.0 241.5 L 527.5 242.0 L 528.0 242.5 L 528.5 243.0 L 529.0 243.5 L 530.0 243.5 L 530.5 244.0 L 531.0 244.5 L 531.5 245.0 L 532.0 245.5 L 532.5 246.0 L 533.0 246.5 L 534.0 246.5 L 534.5 247.0 L 535.0 247.5 L 535.5 248.0 L 535.0 248.5 L 534.5 249.0 L 534.0 249.5 L 533.5 250.0 L 533.0 250.5 L 532.5 251.0 L 532.0 251.5 L 531.0 251.5 L 530.5 252.0 L 530.5 253.0 L 530.5 254.0 L 530.5 255.0 L 530.5 256.0 L 531.0 256.5 L 531.5 257.0 L 531.5 258.0 L 531.5 259.0 L 531.0 259.5 L 530.0 259.5 L 529.0 259.5 L 528.0 259.5 L 527.0 259.5 L 526.0 259.5 L 525.5 259.0 L 525.0 258.5 L 524.0 258.5 L 523.0 258.5 L 522.0 258.5 L 521.0 258.5 L 520.0 258.5 L 519.0 258.5 L 518.5 258.0 L 518.0 257.5 L 517.0 257.5 L 516.0 257.5 L 515.0 257.5 L 514.0 257.5 L 513.0 257.5 L 512.0 257.5 L 511.0 257.5 L 510.0 257.5 L 509.0 257.5 L 508.0 257.5 L 507.0 257.5 L 506.0 257.5 L 505.0 257.5 L 504.0 257.5 L 503.5 258.0 L 503.0 258.5 L 502.0 258.5 L 501.0 258.5 L 500.0 258.5 L 499.0 258.5 L 498.0 258.5 L 497.0 258.5 L 496.0 258.5 L 495.5 259.0 L 495.5 260.0 L 496.0 260.5 L 496.5 261.0 L 496.5 262.0 L 497.0 262.5 L 497.5 263.0 L 497.5 264.0 L 497.5 265.0 L 497.5 266.0 L 497.0 266.5 L 496.0 266.5 L 495.0 266.5 L 494.5 267.0 L 494.0 267.5 L 493.0 267.5 L 492.0 267.5 L 491.0 267.5 L 490.0 267.5 L 489.5 268.0 L 489.0 268.5 L 488.0 268.5 L 487.0 268.5 L 486.0 268.5 L 485.0 268.5 L 484.5 269.0 L 484.0 269.5 L 483.0 269.5 L 482.0 269.5 L 481.0 269.5 L 480.5 270.0 L 480.5 271.0 L 480.5 272.0 L 480.5 273.0 L 480.5 274.0 L 481.0 274.5 L 481.5 275.0 L 481.0 275.5 L 480.5 276.0 L 480.0 276.5 L 479.0 276.5 L 478.5 277.0 L 479.0 277.5 L 479.5 278.0 L 479.0 278.5 L 478.5 279.0 L 479.0 279.5 L 480.0 279.5 L 480.5 280.0 L 481.0 280.5 L 481.5 281.0 L 482.0 281.5 L 482.5 282.0 L 483.0 282.5 L 483.5 283.0 L 483.5 284.0 L 483.5 285.0 L 483.5 286.0 L 483.0 286.5 L 482.5 287.0 L 482.0 287.5 L 481.5 288.0 L 481.5 289.0 L 481.5 290.0 L 481.5 291.0 L 481.5 292.0 L 481.0 292.5 L 480.0 292.5 L 479.0 292.5 L 478.5 293.0 L 478.0 293.5 L 477.0 293.5 L 476.5 294.0 L 476.0 294.5 L 475.0 294.5 L 474.0 294.5 L 473.0 294.5 L 472.0 294.5 L 471.0 294.5 L 470.5 295.0 L 470.0 295.5 L 469.0 295.5 L 468.0 295.5 L 467.5 296.0 L 467.0 296.5 L 466.5 297.0 L 466.0 297.5 L 465.5 298.0 L 465.0 298.5 L 464.5 299.0 L 464.0 299.5 L 463.5 300.0 L 463.0 300.5 L 462.5 301.0 L 462.0 301.5 L 461.5 302.0 L 461.0 302.5 L 460.0 302.5 L 459.5 303.0 L 459.0 303.5 L 458.0 303.5 L 457.5 304.0 L 457.0 304.5 L 456.0 304.5 L 455.5 305.0 L 455.0 305.5 L 454.0 305.5 L 453.5 306.0 L 453.0 306.5 L 452.5 307.0 L 452.0 307.5 L 451.5 308.0 L 451.0 308.5 L 450.5 309.0 L 450.0 309.5 L 449.0 309.5 L 448.5 310.0 L 448.0 310.5 L 447.5 311.0 L 447.5 312.0 L 447.5 313.0 L 447.0 313.5 L 446.5 314.0 L 446.5 315.0 L 446.0 315.5 L 445.5 316.0 L 445.0 316.5 L 444.5 317.0 L 444.5 318.0 L 444.0 318.5 L 443.5 319.0 L 443.0 319.5 L 442.5 320.0 L 442.0 320.5 L 441.0 320.5 L 440.0 320.5 L 439.5 320.0 L 439.0 319.5 L 438.0 319.5 L 437.5 319.0 L 437.5 318.0 L 437.0 317.5 L 436.5 318.0 L 436.0 318.5 L 435.0 318.5 L 434.0 318.5 L 433.0 318.5 L 432.0 318.5 L 431.0 318.5 L 430.5 319.0 L 431.0 319.5 L 432.0 319.5 L 433.0 319.5 L 433.5 320.0 L 434.0 320.5 L 435.0 320.5 L 435.5 321.0 L 435.5 322.0 L 435.0 322.5 L 434.5 323.0 L 434.5 324.0 L 434.0 324.5 L 433.5 325.0 L 433.5 326.0 L 433.0 326.5 L 432.5 327.0 L 432.5 328.0 L 432.0 328.5 L 431.5 329.0 L 431.5 330.0 L 431.0 330.5 L 430.5 331.0 L 430.0 331.5 Z" fill="orange" stroke="black" stroke-width="1" /><path d="M 497.5 184.0 L 497.0 183.5 L 496.5 184.0 L 497.0 184.5 L 497.5 184.0 Z" fill="orange" stroke="black" stroke-width="1" /><path d="M 422.5 283.0 L 423.0 282.5 L 423.5 282.0 L 423.0 281.5 L 422.5 282.0 L 422.0 282.5 L 421.5 283.0 L 422.0 283.5 L 422.5 283.0 Z" fill="orange" stroke="black" stroke-width="1" /><path d="M 381.5 297.0 L 382.0 296.5 L 382.5 296.0 L 383.0 295.5 L 383.5 295.0 L 383.5 294.0 L 383.0 293.5 L 382.5 294.0 L 382.0 294.5 L 381.5 295.0 L 381.5 296.0 L 381.0 296.5 L 380.5 297.0 L 381.0 297.5 L 381.5 297.0 Z" fill="orange" stroke="black" stroke-width="1" /><path d="M 341.0 312.5 L 340.0 312.5 L 339.0 312.5 L 338.5 312.0 L 338.0 311.5 L 337.5 311.0 L 337.0 310.5 L 336.5 310.0 L 336.0 309.5 L 335.5 309.0 L 335.0 308.5 L 334.5 308.0 L 335.0 307.5 L 335.5 307.0 L 336.0 306.5 L 336.5 306.0 L 337.0 305.5 L 337.5 305.0 L 338.0 304.5 L 338.5 304.0 L 339.0 303.5 L 339.5 303.0 L 340.0 302.5 L 340.5 302.0 L 341.0 301.5 L 341.5 301.0 L 342.0 300.5 L 342.5 300.0 L 343.0 299.5 L 343.5 300.0 L 344.0 300.5 L 344.5 301.0 L 345.0 301.5 L 345.5 302.0 L 346.0 302.5 L 346.5 303.0 L 347.0 303.5 L 347.5 304.0 L 347.5 305.0 L 347.5 306.0 L 347.0 306.5 L 346.5 307.0 L 346.0 307.5 L 345.0 307.5 L 344.5 308.0 L 344.0 308.5 L 343.5 309.0 L 343.5 310.0 L 343.0 310.5 L 342.5 311.0 L 342.0 311.5 L 341.5 312.0 L 341.0 312.5 Z" fill="orange" stroke="black" stroke-width="1" /><path d="M 332.0 323.5 L 331.0 323.5 L 330.5 323.0 L 330.0 322.5 L 329.5 322.0 L 329.0 321.5 L 328.0 321.5 L 327.5 321.0 L 327.0 320.5 L 326.5 320.0 L 326.5 319.0 L 327.0 318.5 L 327.5 318.0 L 327.5 317.0 L 328.0 316.5 L 328.5 316.0 L 329.0 315.5 L 329.5 315.0 L 329.5 314.0 L 330.0 313.5 L 330.5 313.0 L 331.0 312.5 L 331.5 312.0 L 332.0 311.5 L 332.5 311.0 L 333.0 310.5 L 334.0 310.5 L 334.5 311.0 L 335.0 311.5 L 336.0 311.5 L 336.5 312.0 L 337.0 312.5 L 337.5 313.0 L 338.0 313.5 L 338.5 314.0 L 338.5 315.0 L 338.0 315.5 L 337.5 316.0 L 337.5 317.0 L 337.0 317.5 L 336.5 318.0 L 336.0 318.5 L 335.5 319.0 L 335.0 319.5 L 334.5 320.0 L 334.5 321.0 L 334.0 321.5 L 333.5 322.0 L 333.0 322.5 L 332.5 323.0 L 332.0 323.5 Z" fill="orange" stroke="black" stroke-width="1" /><path d="M 272.0 459.5 L 271.5 459.0 L 271.0 458.5 L 270.0 458.5 L 269.0 458.5 L 268.5 458.0 L 268.0 457.5 L 267.0 457.5 L 266.0 457.5 L 265.0 457.5 L 264.0 457.5 L 263.0 457.5 L 262.0 457.5 L 261.0 457.5 L 260.0 457.5 L 259.0 457.5 L 258.0 457.5 L 257.0 457.5 L 256.5 458.0 L 256.0 458.5 L 255.0 458.5 L 254.0 458.5 L 253.0 458.5 L 252.0 458.5 L 251.0 458.5 L 250.5 458.0 L 250.5 457.0 L 250.0 456.5 L 249.0 456.5 L 248.5 456.0 L 248.0 455.5 L 247.0 455.5 L 246.5 455.0 L 246.0 454.5 L 245.0 454.5 L 244.5 454.0 L 244.5 453.0 L 245.0 452.5 L 245.5 452.0 L 246.0 451.5 L 246.5 451.0 L 246.5 450.0 L 247.0 449.5 L 247.5 449.0 L 247.5 448.0 L 247.5 447.0 L 247.5 446.0 L 248.0 445.5 L 248.5 445.0 L 248.5 444.0 L 248.0 443.5 L 247.5 443.0 L 247.5 442.0 L 247.5 441.0 L 247.5 440.0 L 248.0 439.5 L 248.5 439.0 L 248.5 438.0 L 248.0 437.5 L 247.5 438.0 L 247.0 438.5 L 246.0 438.5 L 245.5 438.0 L 245.0 437.5 L 244.5 437.0 L 244.0 436.5 L 243.5 436.0 L 243.0 435.5 L 242.5 435.0 L 242.0 434.5 L 241.5 434.0 L 241.5 433.0 L 242.0 432.5 L 242.5 432.0 L 243.0 431.5 L 243.5 431.0 L 244.0 430.5 L 244.5 430.0 L 245.0 429.5 L 245.5 429.0 L 246.0 428.5 L 247.0 428.5 L 247.5 428.0 L 248.0 427.5 L 249.0 427.5 L 249.5 427.0 L 250.0 426.5 L 251.0 426.5 L 252.0 426.5 L 253.0 426.5 L 253.5 426.0 L 253.5 425.0 L 254.0 424.5 L 254.5 424.0 L 254.5 423.0 L 254.5 422.0 L 255.0 421.5 L 255.5 421.0 L 255.0 420.5 L 254.5 420.0 L 254.5 419.0 L 255.0 418.5 L 255.5 418.0 L 256.0 417.5 L 256.5 417.0 L 257.0 416.5 L 257.5 416.0 L 258.0 415.5 L 259.0 415.5 L 259.5 415.0 L 260.0 414.5 L 260.5 414.0 L 260.5 413.0 L 261.0 412.5 L 262.0 412.5 L 263.0 412.5 L 263.5 412.0 L 264.0 411.5 L 265.0 411.5 L 265.5 411.0 L 266.0 410.5 L 267.0 410.5 L 267.5 410.0 L 268.0 409.5 L 268.5 409.0 L 269.0 408.5 L 270.0 408.5 L 270.5 408.0 L 271.0 407.5 L 272.0 407.5 L 272.5 407.0 L 273.0 406.5 L 273.5 406.0 L 273.5 405.0 L 274.0 404.5 L 274.5 404.0 L 274.5 403.0 L 275.0 402.5 L 275.5 402.0 L 275.5 401.0 L 275.5 400.0 L 276.0 399.5 L 276.5 399.0 L 276.5 398.0 L 276.5 397.0 L 276.5 396.0 L 277.0 395.5 L 277.5 395.0 L 277.5 394.0 L 278.0 393.5 L 278.5 393.0 L 279.0 392.5 L 279.5 392.0 L 279.5 391.0 L 279.5 390.0 L 280.0 389.5 L 280.5 389.0 L 280.5 388.0 L 280.5 387.0 L 281.0 386.5 L 281.5 386.0 L 281.5 385.0 L 281.5 384.0 L 282.0 383.5 L 283.0 383.5 L 283.5 383.0 L 284.0 382.5 L 284.5 382.0 L 285.0 381.5 L 285.5 381.0 L 285.5 380.0 L 285.5 379.0 L 286.0 378.5 L 286.5 378.0 L 287.0 377.5 L 288.0 377.5 L 289.0 377.5 L 290.0 377.5 L 291.0 377.5 L 292.0 377.5 L 292.5 377.0 L 293.0 376.5 L 294.0 376.5 L 295.0 376.5 L 296.0 376.5 L 297.0 376.5 L 297.5 376.0 L 298.0 375.5 L 299.0 375.5 L 300.0 375.5 L 301.0 375.5 L 302.0 375.5 L 302.5 375.0 L 303.0 374.5 L 304.0 374.5 L 305.0 374.5 L 305.5 374.0 L 306.0 373.5 L 307.0 373.5 L 307.5 373.0 L 308.0 372.5 L 309.0 372.5 L 309.5 372.0 L 310.0 371.5 L 311.0 371.5 L 311.5 371.0 L 312.0 370.5 L 313.0 370.5 L 314.0 370.5 L 314.5 370.0 L 315.0 369.5 L 316.0 369.5 L 316.5 369.0 L 316.5 368.0 L 316.5 367.0 L 316.5 366.0 L 316.5 365.0 L 316.0 364.5 L 315.5 364.0 L 316.0 363.5 L 316.5 363.0 L 317.0 362.5 L 318.0 362.5 L 319.0 362.5 L 319.5 362.0 L 320.0 361.5 L 321.0 361.5 L 322.0 361.5 L 323.0 361.5 L 323.5 361.0 L 324.0 360.5 L 324.5 360.0 L 325.0 359.5 L 325.5 359.0 L 326.0 358.5 L 327.0 358.5 L 327.5 358.0 L 328.0 357.5 L 329.0 357.5 L 329.5 357.0 L 330.0 356.5 L 331.0 356.5 L 331.5 356.0 L 332.0 355.5 L 332.5 355.0 L 333.0 354.5 L 334.0 354.5 L 334.5 354.0 L 335.0 353.5 L 335.5 353.0 L 336.0 352.5 L 336.5 352.0 L 337.0 351.5 L 338.0 351.5 L 339.0 351.5 L 339.5 352.0 L 340.0 352.5 L 341.0 352.5 L 342.0 352.5 L 343.0 352.5 L 344.0 352.5 L 345.0 352.5 L 345.5 352.0 L 346.0 351.5 L 347.0 351.5 L 347.5 351.0 L 348.0 350.5 L 349.0 350.5 L 349.5 350.0 L 349.5 349.0 L 349.5 348.0 L 350.0 347.5 L 351.0 347.5 L 352.0 347.5 L 353.0 347.5 L 353.5 348.0 L 354.0 348.5 L 355.0 348.5 L 356.0 348.5 L 357.0 348.5 L 357.5 348.0 L 358.0 347.5 L 359.0 347.5 L 359.5 347.0 L 360.0 346.5 L 361.0 346.5 L 362.0 346.5 L 363.0 346.5 L 364.0 346.5 L 364.5 346.0 L 364.5 345.0 L 365.0 344.5 L 365.5 344.0 L 366.0 343.5 L 367.0 343.5 L 368.0 343.5 L 369.0 343.5 L 370.0 343.5 L 370.5 343.0 L 371.0 342.5 L 372.0 342.5 L 373.0 342.5 L 373.5 342.0 L 373.0 341.5 L 372.5 341.0 L 372.5 340.0 L 372.5 339.0 L 372.5 338.0 L 372.5 337.0 L 372.5 336.0 L 373.0 335.5 L 373.5 335.0 L 373.0 334.5 L 372.5 334.0 L 372.5 333.0 L 372.5 332.0 L 373.0 331.5 L 374.0 331.5 L 375.0 331.5 L 376.0 331.5 L 376.5 332.0 L 377.0 332.5 L 378.0 332.5 L 378.5 333.0 L 379.0 333.5 L 379.5 333.0 L 380.0 332.5 L 380.5 332.0 L 380.5 331.0 L 381.0 330.5 L 382.0 330.5 L 383.0 330.5 L 384.0 330.5 L 384.5 331.0 L 385.0 331.5 L 385.5 332.0 L 386.0 332.5 L 387.0 332.5 L 388.0 332.5 L 388.5 332.0 L 389.0 331.5 L 389.5 331.0 L 390.0 330.5 L 391.0 330.5 L 392.0 330.5 L 393.0 330.5 L 394.0 330.5 L 394.5 330.0 L 394.5 329.0 L 394.0 328.5 L 393.5 328.0 L 393.5 327.0 L 393.5 326.0 L 394.0 325.5 L 394.5 325.0 L 395.0 324.5 L 395.5 324.0 L 396.0 323.5 L 397.0 323.5 L 397.5 324.0 L 398.0 324.5 L 398.5 325.0 L 399.0 325.5 L 399.5 326.0 L 399.5 327.0 L 400.0 327.5 L 401.0 327.5 L 402.0 327.5 L 403.0 327.5 L 403.5 327.0 L 403.5 326.0 L 404.0 325.5 L 404.5 325.0 L 404.5 324.0 L 405.0 323.5 L 405.5 323.0 L 406.0 322.5 L 407.0 322.5 L 408.0 322.5 L 408.5 323.0 L 409.0 323.5 L 410.0 323.5 L 410.5 323.0 L 411.0 322.5 L 412.0 322.5 L 412.5 322.0 L 413.0 321.5 L 413.5 321.0 L 414.0 320.5 L 415.0 320.5 L 415.5 321.0 L 416.0 321.5 L 416.5 322.0 L 417.0 322.5 L 417.5 323.0 L 418.0 323.5 L 418.5 324.0 L 418.5 325.0 L 419.0 325.5 L 419.5 326.0 L 419.5 327.0 L 420.0 327.5 L 420.5 328.0 L 420.5 329.0 L 420.5 330.0 L 420.5 331.0 L 420.5 332.0 L 421.0 332.5 L 421.5 332.0 L 421.5 331.0 L 422.0 330.5 L 422.5 330.0 L 423.0 329.5 L 423.5 330.0 L 424.0 330.5 L 425.0 330.5 L 425.5 331.0 L 426.0 331.5 L 426.5 332.0 L 427.0 332.5 L 428.0 332.5 L 428.5 333.0 L 428.5 334.0 L 428.5 335.0 L 428.0 335.5 L 427.5 336.0 L 427.5 337.0 L 427.0 337.5 L 426.5 338.0 L 426.0 338.5 L 425.5 339.0 L 425.0 339.5 L 424.5 340.0 L 424.5 341.0 L 424.0 341.5 L 423.5 342.0 L 423.0 342.5 L 422.5 343.0 L 422.0 343.5 L 421.0 343.5 L 420.5 343.0 L 420.0 342.5 L 419.5 342.0 L 419.0 341.5 L 418.5 342.0 L 418.5 343.0 L 419.0 343.5 L 419.5 344.0 L 420.0 344.5 L 420.5 345.0 L 420.0 345.5 L 419.5 346.0 L 419.0 346.5 L 418.5 347.0 L 418.0 347.5 L 417.5 348.0 L 417.0 348.5 L 416.5 349.0 L 416.0 349.5 L 415.5 350.0 L 415.0 350.5 L 414.5 351.0 L 414.0 351.5 L 413.5 352.0 L 413.0 352.5 L 412.5 353.0 L 412.0 353.5 L 411.0 353.5 L 410.5 353.0 L 410.0 352.5 L 409.5 352.0 L 409.5 351.0 L 409.0 350.5 L 408.5 350.0 L 408.0 349.5 L 407.5 349.0 L 407.5 348.0 L 407.5 347.0 L 408.0 346.5 L 408.5 346.0 L 409.0 345.5 L 409.5 345.0 L 410.0 344.5 L 411.0 344.5 L 411.5 344.0 L 411.0 343.5 L 410.0 343.5 L 409.0 343.5 L 408.0 343.5 L 407.0 343.5 L 406.5 343.0 L 406.0 342.5 L 405.0 342.5 L 404.5 343.0 L 404.0 343.5 L 403.0 343.5 L 402.5 344.0 L 402.0 344.5 L 401.5 345.0 L 401.0 345.5 L 400.0 345.5 L 399.5 346.0 L 399.0 346.5 L 398.0 346.5 L 397.0 346.5 L 396.0 346.5 L 395.5 347.0 L 395.0 347.5 L 394.0 347.5 L 393.5 348.0 L 393.0 348.5 L 392.0 348.5 L 391.5 349.0 L 391.0 349.5 L 390.5 350.0 L 390.0 350.5 L 389.5 351.0 L 389.0 351.5 L 388.5 352.0 L 388.0 352.5 L 387.0 352.5 L 386.5 353.0 L 386.0 353.5 L 385.5 354.0 L 385.0 354.5 L 384.0 354.5 L 383.5 355.0 L 383.0 355.5 L 382.5 356.0 L 383.0 356.5 L 383.5 357.0 L 383.5 358.0 L 383.5 359.0 L 383.0 359.5 L 382.5 360.0 L 382.5 361.0 L 382.5 362.0 L 382.0 362.5 L 381.5 363.0 L 381.0 363.5 L 380.0 363.5 L 379.0 363.5 L 378.5 363.0 L 378.0 362.5 L 377.0 362.5 L 376.0 362.5 L 375.5 362.0 L 375.0 361.5 L 374.5 362.0 L 374.5 363.0 L 374.5 364.0 L 374.5 365.0 L 374.5 366.0 L 374.5 367.0 L 374.5 368.0 L 374.5 369.0 L 374.5 370.0 L 374.5 371.0 L 374.5 372.0 L 374.5 373.0 L 374.5 374.0 L 374.5 375.0 L 374.5 376.0 L 374.5 377.0 L 374.5 378.0 L 374.5 379.0 L 374.5 380.0 L 374.5 381.0 L 374.5 382.0 L 374.5 383.0 L 374.5 384.0 L 374.5 385.0 L 374.5 386.0 L 374.5 387.0 L 374.5 388.0 L 374.5 389.0 L 374.5 390.0 L 374.5 391.0 L 374.5 392.0 L 374.5 393.0 L 374.5 394.0 L 374.5 395.0 L 374.5 396.0 L 374.5 397.0 L 374.5 398.0 L 374.5 399.0 L 374.5 400.0 L 374.5 401.0 L 374.5 402.0 L 374.5 403.0 L 374.5 404.0 L 374.5 405.0 L 374.5 406.0 L 374.5 407.0 L 374.5 408.0 L 374.5 409.0 L 374.5 410.0 L 374.5 411.0 L 374.5 412.0 L 374.5 413.0 L 374.5 414.0 L 374.5 415.0 L 374.5 416.0 L 374.5 417.0 L 374.5 418.0 L 374.5 419.0 L 374.5 420.0 L 374.5 421.0 L 374.5 422.0 L 374.5 423.0 L 374.0 423.5 L 373.0 423.5 L 372.0 423.5 L 371.0 423.5 L 370.0 423.5 L 369.0 423.5 L 368.0 423.5 L 367.0 423.5 L 366.0 423.5 L 365.0 423.5 L 364.0 423.5 L 363.0 423.5 L 362.0 423.5 L 361.0 423.5 L 360.0 423.5 L 359.0 423.5 L 358.0 423.5 L 357.0 423.5 L 356.0 423.5 L 355.0 423.5 L 354.0 423.5 L 353.0 423.5 L 352.0 423.5 L 351.0 423.5 L 350.0 423.5 L 349.0 423.5 L 348.0 423.5 L 347.0 423.5 L 346.0 423.5 L 345.0 423.5 L 344.0 423.5 L 343.0 423.5 L 342.0 423.5 L 341.0 423.5 L 340.0 423.5 L 339.0 423.5 L 338.0 423.5 L 337.0 423.5 L 336.0 423.5 L 335.0 423.5 L 334.0 423.5 L 333.0 423.5 L 332.0 423.5 L 331.0 423.5 L 330.0 423.5 L 329.5 424.0 L 329.5 425.0 L 330.0 425.5 L 330.5 426.0 L 330.5 427.0 L 330.5 428.0 L 330.5 429.0 L 330.5 430.0 L 331.0 430.5 L 331.5 431.0 L 331.5 432.0 L 331.5 433.0 L 331.0 433.5 L 330.0 433.5 L 329.0 433.5 L 328.0 433.5 L 327.0 433.5 L 326.0 433.5 L 325.0 433.5 L 324.0 433.5 L 323.5 433.0 L 323.5 432.0 L 323.5 431.0 L 323.5 430.0 L 323.5 429.0 L 323.0 428.5 L 322.5 428.0 L 322.5 427.0 L 322.5 426.0 L 322.0 425.5 L 321.5 425.0 L 321.5 424.0 L 321.0 423.5 L 320.0 423.5 L 319.0 423.5 L 318.0 423.5 L 317.0 423.5 L 316.0 423.5 L 315.0 423.5 L 314.0 423.5 L 313.0 423.5 L 312.0 423.5 L 311.0 423.5 L 310.0 423.5 L 309.0 423.5 L 308.0 423.5 L 307.0 423.5 L 306.5 424.0 L 306.5 425.0 L 306.5 426.0 L 306.5 427.0 L 306.5 428.0 L 306.5 429.0 L 306.5 430.0 L 306.5 431.0 L 306.5 432.0 L 306.5 433.0 L 306.5 434.0 L 306.5 435.0 L 306.5 436.0 L 306.5 437.0 L 306.5 438.0 L 306.5 439.0 L 306.5 440.0 L 306.5 441.0 L 306.5 442.0 L 306.5 443.0 L 306.5 444.0 L 306.5 445.0 L 306.5 446.0 L 306.5 447.0 L 306.5 448.0 L 306.5 449.0 L 306.5 450.0 L 306.5 451.0 L 306.5 452.0 L 306.5 453.0 L 306.5 454.0 L 306.5 455.0 L 306.5 456.0 L 306.5 457.0 L 306.0 457.5 L 305.0 457.5 L 304.0 457.5 L 303.0 457.5 L 302.0 457.5 L 301.0 457.5 L 300.0 457.5 L 299.5 458.0 L 299.0 458.5 L 298.0 458.5 L 297.0 458.5 L 296.0 458.5 L 295.0 458.5 L 294.0 458.5 L 293.0 458.5 L 292.0 458.5 L 291.5 458.0 L 291.0 457.5 L 290.0 457.5 L 289.0 457.5 L 288.5 457.0 L 288.0 456.5 L 287.0 456.5 L 286.0 456.5 L 285.0 456.5 L 284.0 456.5 L 283.0 456.5 L 282.0 456.5 L 281.0 456.5 L 280.0 456.5 L 279.0 456.5 L 278.5 457.0 L 278.0 457.5 L 277.0 457.5 L 276.0 457.5 L 275.5 458.0 L 275.0 458.5 L 274.0 458.5 L 273.0 458.5 L 272.5 459.0 L 272.0 459.5 Z" fill="orange" stroke="black" stroke-width="1" /><path d="M 326.0 335.5 L 325.5 335.0 L 325.0 334.5 L 324.0 334.5 L 323.5 334.0 L 323.0 333.5 L 322.0 333.5 L 321.0 333.5 L 320.5 333.0 L 320.0 332.5 L 319.5 332.0 L 320.0 331.5 L 320.5 331.0 L 320.5 330.0 L 321.0 329.5 L 321.5 329.0 L 321.5 328.0 L 322.0 327.5 L 322.5 327.0 L 322.5 326.0 L 323.0 325.5 L 323.5 325.0 L 323.5 324.0 L 324.0 323.5 L 324.5 323.0 L 324.5 322.0 L 325.0 321.5 L 326.0 321.5 L 326.5 322.0 L 327.0 322.5 L 328.0 322.5 L 328.5 323.0 L 329.0 323.5 L 330.0 323.5 L 330.5 324.0 L 331.0 324.5 L 331.5 325.0 L 331.5 326.0 L 331.0 326.5 L 330.5 327.0 L 330.5 328.0 L 330.0 328.5 L 329.5 329.0 L 329.5 330.0 L 329.0 330.5 L 328.5 331.0 L 328.5 332.0 L 328.0 332.5 L 327.5 333.0 L 327.5 334.0 L 327.0 334.5 L 326.5 335.0 L 326.0 335.5 Z" fill="orange" stroke="black" stroke-width="1" /><path d="M 323.0 347.5 L 322.0 347.5 L 321.0 347.5 L 320.0 347.5 L 319.5 347.0 L 319.0 346.5 L 318.0 346.5 L 317.0 346.5 L 316.0 346.5 L 315.5 346.0 L 315.5 345.0 L 316.0 344.5 L 316.5 344.0 L 316.5 343.0 L 316.5 342.0 L 316.5 341.0 L 317.0 340.5 L 317.5 340.0 L 317.5 339.0 L 317.5 338.0 L 318.0 337.5 L 318.5 337.0 L 318.5 336.0 L 318.5 335.0 L 319.0 334.5 L 320.0 334.5 L 321.0 334.5 L 321.5 335.0 L 322.0 335.5 L 323.0 335.5 L 324.0 335.5 L 324.5 336.0 L 325.0 336.5 L 325.5 337.0 L 325.5 338.0 L 325.5 339.0 L 325.0 339.5 L 324.5 340.0 L 324.5 341.0 L 324.5 342.0 L 324.5 343.0 L 324.0 343.5 L 323.5 344.0 L 323.5 345.0 L 323.5 346.0 L 323.5 347.0 L 323.0 347.5 Z" fill="orange" stroke="black" stroke-width="1" /><path d="M 322.0 360.5 L 321.0 360.5 L 320.0 360.5 L 319.0 360.5 L 318.0 360.5 L 317.0 360.5 L 316.0 360.5 L 315.5 360.0 L 315.5 359.0 L 315.5 358.0 L 315.5 357.0 L 315.5 356.0 L 315.5 355.0 L 315.5 354.0 L 315.5 353.0 L 315.5 352.0 L 315.5 351.0 L 315.5 350.0 L 315.5 349.0 L 316.0 348.5 L 317.0 348.5 L 318.0 348.5 L 319.0 348.5 L 320.0 348.5 L 321.0 348.5 L 322.0 348.5 L 322.5 349.0 L 322.5 350.0 L 322.5 351.0 L 322.5 352.0 L 322.5 353.0 L 322.5 354.0 L 322.5 355.0 L 322.5 356.0 L 322.5 357.0 L 322.5 358.0 L 322.5 359.0 L 322.5 360.0 L 322.0 360.5 Z" fill="orange" stroke="black" stroke-width="1" /><path d="M 400.0 361.5 L 399.5 361.0 L 399.0 360.5 L 398.5 360.0 L 398.5 359.0 L 398.0 358.5 L 397.5 358.0 L 397.0 357.5 L 396.5 357.0 L 396.5 356.0 L 396.5 355.0 L 397.0 354.5 L 397.5 354.0 L 398.0 353.5 L 398.5 353.0 L 399.0 352.5 L 400.0 352.5 L 400.5 352.0 L 401.0 351.5 L 402.0 351.5 L 402.5 351.0 L 403.0 350.5 L 403.5 350.0 L 404.0 349.5 L 405.0 349.5 L 406.0 349.5 L 406.5 350.0 L 407.0 350.5 L 407.5 351.0 L 408.0 351.5 L 408.5 352.0 L 408.5 353.0 L 409.0 353.5 L 409.5 354.0 L 409.5 355.0 L 409.0 355.5 L 408.5 356.0 L 408.0 356.5 L 407.5 357.0 L 407.0 357.5 L 406.0 357.5 L 405.5 358.0 L 405.0 358.5 L 404.0 358.5 L 403.5 359.0 L 403.0 359.5 L 402.5 360.0 L 402.0 360.5 L 401.0 360.5 L 400.5 361.0 L 400.0 361.5 Z" fill="orange" stroke="black" stroke-width="1" /><path d="M 372.5 357.0 L 373.0 356.5 L 373.5 356.0 L 374.0 355.5 L 374.5 355.0 L 374.5 354.0 L 374.0 353.5 L 373.0 353.5 L 372.5 354.0 L 372.0 354.5 L 371.5 355.0 L 371.5 356.0 L 371.5 357.0 L 372.0 357.5 L 372.5 357.0 Z" fill="orange" stroke="black" stroke-width="1" /><path d="M 389.0 364.5 L 388.0 364.5 L 387.0 364.5 L 386.0 364.5 L 385.0 364.5 L 384.5 364.0 L 384.5 363.0 L 384.5 362.0 L 384.5 361.0 L 384.5 360.0 L 384.5 359.0 L 384.5 358.0 L 384.5 357.0 L 385.0 356.5 L 386.0 356.5 L 387.0 356.5 L 388.0 356.5 L 389.0 356.5 L 390.0 356.5 L 391.0 356.5 L 391.5 356.0 L 392.0 355.5 L 393.0 355.5 L 394.0 355.5 L 395.0 355.5 L 395.5 356.0 L 395.5 357.0 L 395.5 358.0 L 396.0 358.5 L 396.5 359.0 L 396.5 360.0 L 396.5 361.0 L 396.5 362.0 L 396.0 362.5 L 395.0 362.5 L 394.5 363.0 L 394.0 363.5 L 393.0 363.5 L 392.0 363.5 L 391.0 363.5 L 390.0 363.5 L 389.5 364.0 L 389.0 364.5 Z" fill="orange" stroke="black" stroke-width="1" /><path d="M 335.5 383.0 L 336.0 382.5 L 336.5 382.0 L 337.0 381.5 L 337.5 381.0 L 337.5 380.0 L 337.0 379.5 L 336.0 379.5 L 335.5 380.0 L 335.5 381.0 L 335.0 381.5 L 334.5 382.0 L 334.5 383.0 L 335.0 383.5 L 335.5 383.0 Z" fill="orange" stroke="black" stroke-width="1" /><path d="M 313.5 414.0 L 314.0 413.5 L 314.5 413.0 L 315.0 412.5 L 315.5 412.0 L 315.5 411.0 L 315.0 410.5 L 314.0 410.5 L 313.5 411.0 L 313.0 411.5 L 312.5 412.0 L 312.5 413.0 L 312.5 414.0 L 313.0 414.5 L 313.5 414.0 Z" fill="orange" stroke="black" stroke-width="1" /><path d="M 266.5 430.0 L 267.0 429.5 L 267.5 429.0 L 267.5 428.0 L 267.5 427.0 L 267.0 426.5 L 266.0 426.5 L 265.5 427.0 L 265.5 428.0 L 265.5 429.0 L 265.0 429.5 L 264.5 430.0 L 265.0 430.5 L 266.0 430.5 L 266.5 430.0 Z" fill="orange" stroke="black" stroke-width="1" /><path d="M 239.0 448.5 L 238.0 448.5 L 237.5 448.0 L 237.0 447.5 L 236.0 447.5 L 235.5 447.0 L 235.0 446.5 L 234.0 446.5 L 233.5 446.0 L 233.0 445.5 L 232.5 445.0 L 233.0 444.5 L 233.5 444.0 L 233.5 443.0 L 234.0 442.5 L 234.5 442.0 L 235.0 441.5 L 235.5 441.0 L 235.5 440.0 L 236.0 439.5 L 236.5 439.0 L 237.0 438.5 L 237.5 438.0 L 237.5 437.0 L 238.0 436.5 L 238.5 436.0 L 239.0 435.5 L 240.0 435.5 L 241.0 435.5 L 241.5 436.0 L 242.0 436.5 L 242.5 437.0 L 243.0 437.5 L 243.5 438.0 L 244.0 438.5 L 245.0 438.5 L 245.5 439.0 L 245.5 440.0 L 245.0 440.5 L 244.5 441.0 L 244.0 441.5 L 243.5 442.0 L 243.0 442.5 L 242.5 443.0 L 242.5 444.0 L 242.0 444.5 L 241.5 445.0 L 241.0 445.5 L 240.5 446.0 L 240.5 447.0 L 240.0 447.5 L 239.5 448.0 L 239.0 448.5 Z" fill="orange" stroke="black" stroke-width="1" /><path d="M 329.0 447.5 L 328.0 447.5 L 327.0 447.5 L 326.0 447.5 L 325.5 447.0 L 325.0 446.5 L 324.0 446.5 L 323.0 446.5 L 322.5 446.0 L 322.5 445.0 L 322.5 444.0 L 322.5 443.0 L 322.5 442.0 L 323.0 441.5 L 323.5 441.0 L 323.5 440.0 L 323.5 439.0 L 323.5 438.0 L 323.5 437.0 L 323.5 436.0 L 324.0 435.5 L 325.0 435.5 L 326.0 435.5 L 327.0 435.5 L 328.0 435.5 L 329.0 435.5 L 330.0 435.5 L 331.0 435.5 L 331.5 436.0 L 331.5 437.0 L 331.5 438.0 L 331.0 438.5 L 330.5 439.0 L 330.5 440.0 L 330.5 441.0 L 330.5 442.0 L 330.5 443.0 L 330.5 444.0 L 330.0 444.5 L 329.5 445.0 L 329.5 446.0 L 329.5 447.0 L 329.0 447.5 Z" fill="orange" stroke="black" stroke-width="1" /><path d="M 234.0 460.5 L 233.0 460.5 L 232.0 460.5 L 231.5 460.0 L 231.0 459.5 L 230.0 459.5 L 229.0 459.5 L 228.5 459.0 L 228.0 458.5 L 227.5 458.0 L 227.5 457.0 L 228.0 456.5 L 228.5 456.0 L 228.5 455.0 L 228.5 454.0 L 229.0 453.5 L 229.5 453.0 L 229.5 452.0 L 229.5 451.0 L 230.0 450.5 L 230.5 450.0 L 230.5 449.0 L 231.0 448.5 L 231.5 448.0 L 232.0 447.5 L 233.0 447.5 L 234.0 447.5 L 234.5 448.0 L 235.0 448.5 L 236.0 448.5 L 236.5 449.0 L 237.0 449.5 L 238.0 449.5 L 238.5 450.0 L 238.5 451.0 L 238.0 451.5 L 237.5 452.0 L 237.5 453.0 L 237.0 453.5 L 236.5 454.0 L 236.5 455.0 L 236.5 456.0 L 236.0 456.5 L 235.5 457.0 L 235.5 458.0 L 235.0 458.5 L 234.5 459.0 L 234.5 460.0 L 234.0 460.5 Z" fill="orange" stroke="black" stroke-width="1" /><path d="M 323.0 460.5 L 322.0 460.5 L 321.0 460.5 L 320.5 460.0 L 320.0 459.5 L 319.0 459.5 L 318.5 459.0 L 318.0 458.5 L 317.5 458.0 L 317.0 457.5 L 316.5 457.0 L 317.0 456.5 L 317.5 456.0 L 317.5 455.0 L 318.0 454.5 L 318.5 454.0 L 318.5 453.0 L 319.0 452.5 L 319.5 452.0 L 319.5 451.0 L 320.0 450.5 L 320.5 450.0 L 320.5 449.0 L 320.5 448.0 L 321.0 447.5 L 322.0 447.5 L 323.0 447.5 L 323.5 448.0 L 324.0 448.5 L 325.0 448.5 L 326.0 448.5 L 326.5 449.0 L 327.0 449.5 L 327.5 450.0 L 327.5 451.0 L 327.5 452.0 L 327.5 453.0 L 327.0 453.5 L 326.5 454.0 L 326.5 455.0 L 326.0 455.5 L 325.5 456.0 L 325.5 457.0 L 325.0 457.5 L 324.5 458.0 L 324.5 459.0 L 324.0 459.5 L 323.5 460.0 L 323.0 460.5 Z" fill="orange" stroke="black" stroke-width="1" /><path d="M 315.0 472.5 L 314.0 472.5 L 313.5 472.0 L 313.0 471.5 L 312.5 471.0 L 312.0 470.5 L 311.5 470.0 L 311.0 469.5 L 310.0 469.5 L 309.5 469.0 L 309.5 468.0 L 309.5 467.0 L 310.0 466.5 L 310.5 466.0 L 311.0 465.5 L 311.5 465.0 L 311.5 464.0 L 312.0 463.5 L 312.5 463.0 L 313.0 462.5 L 313.5 462.0 L 314.0 461.5 L 314.5 461.0 L 314.5 460.0 L 315.0 459.5 L 315.5 459.0 L 316.0 458.5 L 316.5 459.0 L 317.0 459.5 L 317.5 460.0 L 318.0 460.5 L 319.0 460.5 L 319.5 461.0 L 320.0 461.5 L 320.5 462.0 L 321.0 462.5 L 321.5 463.0 L 321.5 464.0 L 321.0 464.5 L 320.5 465.0 L 320.0 465.5 L 319.5 466.0 L 319.5 467.0 L 319.0 467.5 L 318.5 468.0 L 318.0 468.5 L 317.5 469.0 L 317.0 469.5 L 316.5 470.0 L 316.5 471.0 L 316.0 471.5 L 315.5 472.0 L 315.0 472.5 Z" fill="orange" stroke="black" stroke-width="1" /><path d="M 231.0 473.5 L 230.0 473.5 L 229.0 473.5 L 228.5 473.0 L 228.0 472.5 L 227.0 472.5 L 226.0 472.5 L 225.0 472.5 L 224.5 472.0 L 224.5 471.0 L 224.5 470.0 L 224.5 469.0 L 225.0 468.5 L 225.5 468.0 L 225.5 467.0 L 225.5 466.0 L 225.5 465.0 L 225.5 464.0 L 226.0 463.5 L 226.5 463.0 L 226.5 462.0 L 226.5 461.0 L 227.0 460.5 L 228.0 460.5 L 229.0 460.5 L 229.5 461.0 L 230.0 461.5 L 231.0 461.5 L 232.0 461.5 L 233.0 461.5 L 233.5 462.0 L 233.5 463.0 L 233.5 464.0 L 233.5 465.0 L 233.5 466.0 L 233.0 466.5 L 232.5 467.0 L 232.5 468.0 L 232.5 469.0 L 232.5 470.0 L 232.5 471.0 L 232.0 471.5 L 231.5 472.0 L 231.5 473.0 L 231.0 473.5 Z" fill="orange" stroke="black" stroke-width="1" /><path d="M 265.5 486.0 L 266.0 485.5 L 266.5 485.0 L 266.5 484.0 L 267.0 483.5 L 267.5 483.0 L 267.0 482.5 L 266.0 482.5 L 265.5 483.0 L 265.0 483.5 L 264.5 484.0 L 264.0 484.5 L 263.5 485.0 L 264.0 485.5 L 264.5 486.0 L 265.0 486.5 L 265.5 486.0 Z" fill="orange" stroke="black" stroke-width="1" /><path d="M 222.5 491.0 L 223.0 490.5 L 223.5 490.0 L 223.5 489.0 L 224.0 488.5 L 224.5 488.0 L 225.0 487.5 L 225.5 487.0 L 225.0 486.5 L 224.0 486.5 L 223.5 487.0 L 223.5 488.0 L 223.0 488.5 L 222.5 489.0 L 222.5 490.0 L 222.0 490.5 L 221.5 491.0 L 222.0 491.5 L 222.5 491.0 Z" fill="orange" stroke="black" stroke-width="1" /><path d="M 253.5 516.0 L 253.5 515.0 L 254.0 514.5 L 254.5 514.0 L 254.0 513.5 L 253.5 513.0 L 253.0 512.5 L 252.5 513.0 L 252.5 514.0 L 252.0 514.5 L 251.5 515.0 L 251.5 516.0 L 252.0 516.5 L 253.0 516.5 L 253.5 516.0 Z" fill="orange" stroke="black" stroke-width="1" /></svg>